<?xml version="1.0" encoding="UTF-8"?>
<svg version="1.1" xmlns="http://www.w3.org/2000/svg" width="776" height="161">
<path d="M0 0 C256.08 0 512.16 0 776 0 C776 53.13 776 106.26 776 161 C519.92 161 263.84 161 0 161 C0 107.87 0 54.74 0 0 Z " fill="#FEFDFD" transform="translate(0,0)"/>
<path d="M0 0 C10.085625 -0.0928125 10.085625 -0.0928125 20.375 -0.1875 C22.47665527 -0.21481201 24.57831055 -0.24212402 26.74365234 -0.27026367 C28.44107492 -0.27903935 30.13850389 -0.28668072 31.8359375 -0.29296875 C32.6916333 -0.30831665 33.5473291 -0.32366455 34.42895508 -0.33947754 C44.83605326 -0.34390861 55.02935871 2.81993769 62.9765625 9.71484375 C72.68174781 19.81236634 72.54038986 31.31162889 72.3359375 44.57421875 C71.92114363 54.69747886 68.71025537 64.3333776 61.75 71.875 C45.92109346 86.43622355 17.7434682 81 0 81 C0 54.27 0 27.54 0 0 Z " fill="#E10F1E" transform="translate(297,56)"/>
<path d="M0 0 C6.703125 -0.061875 13.40625 -0.12375 20.3125 -0.1875 C22.40505127 -0.21481201 24.49760254 -0.24212402 26.65356445 -0.27026367 C48.81104588 -0.44013852 48.81104588 -0.44013852 56.5 5.3125 C62.04315757 11.27139439 62.60512112 16.70957573 62.40625 24.58984375 C61.38384269 33.17216662 55.45226702 37.86751487 49 43 C48.0925 43.72703125 47.185 44.4540625 46.25 45.203125 C45.5075 45.79609375 44.765 46.3890625 44 47 C46.1225243 49.89765508 48.24814446 52.79302262 50.375 55.6875 C51.00680176 56.54786865 51.63860352 57.4082373 52.28955078 58.29467773 C56.85493027 64.49335611 61.52387631 70.59524582 66.3046875 76.62890625 C68 79 68 79 68 81 C61.64830033 82.0865632 55.24891891 83.00979082 49 81 C43.7834303 77.06176389 40.69710534 71.06492561 37.49072266 65.48925781 C36.03221405 63.05379207 34.45725583 60.79874544 32.76171875 58.5234375 C32.24416016 57.82347656 31.72660156 57.12351563 31.19335938 56.40234375 C30.21850139 55.08988903 29.23712504 53.78224056 28.24804688 52.48046875 C24.93671317 47.80974542 24.52777143 44.70452108 25 39 C25.94101563 38.72027344 26.88203125 38.44054687 27.8515625 38.15234375 C37.10092262 35.37200393 37.10092262 35.37200393 44.15625 29.11328125 C45.84766403 24.87691554 45.43594809 20.46443133 45 16 C36.25515293 12.77787385 36.25515293 12.77787385 15 13 C15 35.44 15 57.88 15 81 C10.05 81 5.1 81 0 81 C0 54.27 0 27.54 0 0 Z " fill="#E10F1D" transform="translate(151,56)"/>
<path d="M0 0 C3.1975539 2.9433916 5.27698333 5.88779138 7.3984375 9.671875 C8.03523438 10.79851563 8.67203125 11.92515625 9.328125 13.0859375 C9.66134766 13.68245117 9.99457031 14.27896484 10.33789062 14.89355469 C11.7542057 17.42878535 13.18471198 19.95590673 14.61456299 22.48352051 C15.34764791 23.77959081 16.08002516 25.07606164 16.81170654 26.3729248 C20.14896323 32.2832694 23.56444868 38.14628598 27 44 C30.78543785 50.45992603 34.54447102 56.93367128 38.25390625 63.4375 C38.6133432 64.06769043 38.97278015 64.69788086 39.34310913 65.34716797 C41.09307203 68.41724723 42.8401603 71.48893002 44.58398438 74.5625 C47.2954114 79.32887427 50.00676612 84.0692026 52.96484375 88.6875 C55 92 55 92 55 94 C44.11 94 33.22 94 22 94 C16 83 16 83 16 81 C21.28 81 26.56 81 32 81 C30.845 79.1025 29.69 77.205 28.5 75.25 C23.08854445 66.28836056 17.93119984 57.17957967 12.76171875 48.07714844 C8.92713619 41.33141054 5.03245964 34.62970135 1 28 C-1.97903384 31.53727088 -4.30005249 35.10205753 -6.50390625 39.1640625 C-6.82403183 39.75003708 -7.14415741 40.33601166 -7.47398376 40.93974304 C-8.15589971 42.1886779 -8.83574874 43.4387432 -9.51367188 44.68984985 C-11.28130834 47.95124406 -13.06458039 51.20405957 -14.84765625 54.45703125 C-15.20086945 55.10208115 -15.55408264 55.74713104 -15.91799927 56.41172791 C-20.462968 64.69382429 -25.21299059 72.85599882 -30 81 C-25.05 81 -20.1 81 -15 81 C-17 87 -17 87 -21 94 C-31.56 94 -42.12 94 -53 94 C-51.48465618 89.45396854 -50.13440907 86.18291035 -47.796875 82.1328125 C-46.83177002 80.45215698 -46.83177002 80.45215698 -45.84716797 78.73754883 C-45.14822882 77.53329807 -44.44916981 76.32911686 -43.75 75.125 C-43.0257734 73.86833099 -42.30198388 72.61140999 -41.57861328 71.35424805 C-36.48365264 62.51159874 -31.33009427 53.70299873 -26.16674805 44.90014648 C-21.28145887 36.54639268 -16.54981795 28.11019748 -11.88037109 19.6340332 C-8.16169029 12.92399689 -4.18889008 6.42684411 0 0 Z " fill="#E1101E" transform="translate(63,43)"/>
<path d="M0 0 C18.81 0 37.62 0 57 0 C57 4.29 57 8.58 57 13 C43.14 13 29.28 13 15 13 C15 19.6 15 26.2 15 33 C28.2 33 41.4 33 55 33 C55 37.62 55 42.24 55 47 C41.8 47 28.6 47 15 47 C15 53.93 15 60.86 15 68 C28.86 68 42.72 68 57 68 C57 72.29 57 76.58 57 81 C38.19 81 19.38 81 0 81 C0 54.27 0 27.54 0 0 Z " fill="#E21321" transform="translate(226,56)"/>
<path d="M0 0 C0 4.62 0 9.24 0 14 C-2.18098958 13.51171875 -4.36197917 13.0234375 -6.54296875 12.53515625 C-7.35378906 12.35855469 -8.16460938 12.18195313 -9 12 C-9.76691162 11.82887695 -10.53382324 11.65775391 -11.32397461 11.48144531 C-15.98164095 10.6434818 -20.65376112 10.73209609 -25.375 10.6875 C-26.39078125 10.65849609 -27.4065625 10.62949219 -28.453125 10.59960938 C-34.87898337 10.54536512 -38.80677477 11.11557951 -44 15 C-46.50031654 18.75047482 -46.53603554 20.55856266 -46 25 C-44.33715594 27.58247565 -43.62028265 28.57984939 -41 30 C-36.75434807 30.6970645 -32.54474288 30.65369539 -28.25 30.625 C-10.21875 30.625 -10.21875 30.625 -3.1875 36.25 C2.4196803 43.29902666 3.66757687 47.49414101 3.38671875 56.6171875 C2.58678046 63.6146275 -0.49489823 68.59591858 -6 73 C-21.45326577 81.79977634 -40.38237559 80.35169812 -57 76 C-57.66 75.67 -58.32 75.34 -59 75 C-59 70.71 -59 66.42 -59 62 C-55.55359359 62.48485565 -52.11195458 62.98197676 -48.67578125 63.53515625 C-32.47447706 66.26969384 -32.47447706 66.26969384 -17 62 C-14.18475299 58.91009475 -13.15756685 56.98479278 -12.5 52.875 C-13.11872314 49.31734194 -14.17212546 48.18150321 -17 46 C-20.12858753 44.95713749 -22.3469389 44.87508446 -25.62890625 44.859375 C-26.74716797 44.84003906 -27.86542969 44.82070312 -29.01757812 44.80078125 C-31.35334711 44.7673212 -33.68938348 44.74872884 -36.02539062 44.74609375 C-43.60232983 44.58147186 -49.75812245 43.53727753 -56 39 C-61.44937217 32.47455898 -62.37496715 26.38479941 -62.2734375 18.0390625 C-61.71907677 11.87773892 -59.18238156 7.82805531 -54.6875 3.6875 C-40.62345185 -7.39509041 -16.0984163 -4.95335886 0 0 Z " fill="#E1101F" transform="translate(757,59)"/>
<path d="M0 0 C1.48831242 0.00667405 2.97660807 0.01863442 4.46484375 0.03515625 C5.22345703 0.03966797 5.98207031 0.04417969 6.76367188 0.04882812 C8.64326246 0.06064945 10.52281274 0.07858547 12.40234375 0.09765625 C18.14989165 11.2101949 23.22639523 22.56600173 28.21484375 34.03515625 C29.01066184 35.85899281 29.80672472 37.68272259 30.60302734 39.50634766 C32.16206127 43.07785689 33.71903876 46.65025324 35.27490234 50.22314453 C37.10205267 54.41524984 38.94556697 58.59975924 40.796875 62.78125 C41.50589966 64.38915405 41.50589966 64.38915405 42.22924805 66.02954102 C43.06927298 67.93409256 43.91294744 69.83704039 44.76098633 71.73803711 C45.1195874 72.5553833 45.47818848 73.37272949 45.84765625 74.21484375 C46.15203613 74.90175293 46.45641602 75.58866211 46.77001953 76.29638672 C47.40234375 78.09765625 47.40234375 78.09765625 47.40234375 81.09765625 C42.12234375 81.09765625 36.84234375 81.09765625 31.40234375 81.09765625 C28.43234375 74.16765625 25.46234375 67.23765625 22.40234375 60.09765625 C13.49234375 59.76765625 4.58234375 59.43765625 -4.59765625 59.09765625 C-1.59765625 49.09765625 -1.59765625 49.09765625 0.40234375 46.09765625 C3.20874482 45.87516145 5.73351267 45.81677144 8.52734375 45.91015625 C11.12609375 45.97203125 13.72484375 46.03390625 16.40234375 46.09765625 C12.44234375 36.85765625 8.48234375 27.61765625 4.40234375 18.09765625 C2.10951529 21.53689893 0.60666333 25.13367098 -0.9765625 28.9296875 C-1.30498642 29.71046158 -1.63341034 30.49123566 -1.9717865 31.29566956 C-3.03776317 33.83250783 -4.09908666 36.37126206 -5.16015625 38.91015625 C-5.88655694 40.64215772 -6.61311966 42.37409123 -7.33984375 44.10595703 C-12.4964758 56.40771779 -17.59583671 68.73204684 -22.59765625 81.09765625 C-27.87765625 81.09765625 -33.15765625 81.09765625 -38.59765625 81.09765625 C-35.35891722 72.54331537 -31.95385148 64.10616133 -28.2890625 55.7265625 C-27.79985825 54.60176987 -27.31065399 53.47697723 -26.80662537 52.31809998 C-25.26037786 48.76432395 -23.71040284 45.21218932 -22.16015625 41.66015625 C-20.6173763 38.11836288 -19.07537057 34.57623333 -17.53353882 31.0340271 C-16.54755138 28.76944321 -15.56093167 26.5051345 -14.57363892 24.24111938 C-11.54198168 17.28570071 -8.54362147 10.31765654 -5.60131836 3.32397461 C-4.15364297 0.11274818 -4.15364297 0.11274818 0 0 Z " fill="#E1101F" transform="translate(438.59765625,55.90234375)"/>
<path d="M0 0 C1.58206057 0.00667536 3.16410534 0.0186375 4.74609375 0.03515625 C5.55240234 0.03966797 6.35871094 0.04417969 7.18945312 0.04882812 C9.18753131 0.06065107 11.18557158 0.07858711 13.18359375 0.09765625 C22.6499501 21.44193254 32.09386537 42.7953604 41.37109375 64.22265625 C41.72010742 65.02714203 42.06912109 65.83162781 42.42871094 66.66049194 C43.40504925 68.91210263 44.3788115 71.16480634 45.3515625 73.41796875 C45.64125412 74.08569809 45.93094574 74.75342743 46.22941589 75.44139099 C48.18359375 79.98234514 48.18359375 79.98234514 48.18359375 81.09765625 C42.57359375 81.09765625 36.96359375 81.09765625 31.18359375 81.09765625 C29.84370472 77.99617204 28.51147734 74.89177579 27.18359375 71.78515625 C26.80203125 70.90408203 26.42046875 70.02300781 26.02734375 69.11523438 C25.66640625 68.26767578 25.30546875 67.42011719 24.93359375 66.546875 C24.5984375 65.76658936 24.26328125 64.98630371 23.91796875 64.18237305 C23.18359375 62.09765625 23.18359375 62.09765625 23.18359375 59.09765625 C14.27359375 59.09765625 5.36359375 59.09765625 -3.81640625 59.09765625 C-2.81640625 53.09765625 -2.81640625 53.09765625 0.18359375 46.09765625 C5.46359375 46.09765625 10.74359375 46.09765625 16.18359375 46.09765625 C15.36955078 44.08865234 15.36955078 44.08865234 14.5390625 42.0390625 C13.81626551 40.24615048 13.09361719 38.45317852 12.37109375 36.66015625 C12.01466797 35.78166016 11.65824219 34.90316406 11.29101562 33.99804688 C9.04893294 28.42369452 7.00790226 22.8225726 5.18359375 17.09765625 C4.52359375 17.09765625 3.86359375 17.09765625 3.18359375 17.09765625 C2.9248925 17.90938042 2.9248925 17.90938042 2.66096497 18.73750305 C0.81227442 24.42343231 -1.30939291 29.93944621 -3.6171875 35.453125 C-3.97604538 36.31722488 -4.33490326 37.18132477 -4.70463562 38.0716095 C-5.84312636 40.81068945 -6.98602492 43.54790585 -8.12890625 46.28515625 C-8.88373483 48.1007987 -9.63829417 49.9165531 -10.39257812 51.73242188 C-14.4741324 61.54705534 -18.60826103 71.33663259 -22.81640625 81.09765625 C-27.76640625 81.09765625 -32.71640625 81.09765625 -37.81640625 81.09765625 C-37.04240798 77.22766488 -36.25333337 74.4504862 -34.734375 70.90625 C-34.30302246 69.89328857 -33.87166992 68.88032715 -33.42724609 67.83666992 C-32.95754395 66.74717041 -32.4878418 65.6576709 -32.00390625 64.53515625 C-31.51615723 63.39344971 -31.0284082 62.25174316 -30.52587891 61.07543945 C-29.22414806 58.03081492 -27.91830345 54.98802366 -26.6104126 51.94604492 C-25.31496706 48.9303425 -24.02495231 45.91231955 -22.734375 42.89453125 C-20.7249262 38.19767762 -18.71170144 33.5024719 -16.6953125 28.80859375 C-14.82012538 24.44216743 -12.9527874 20.07254477 -11.09375 15.69921875 C-10.67561035 14.71735596 -10.2574707 13.73549316 -9.82666016 12.72387695 C-9.04707283 10.89249824 -8.26930725 9.06034262 -7.49365234 7.22729492 C-7.15285645 6.42783447 -6.81206055 5.62837402 -6.4609375 4.8046875 C-6.16550049 4.10835205 -5.87006348 3.4120166 -5.56567383 2.69458008 C-4.10104975 -0.42699246 -3.92353108 0.10039742 0 0 Z " fill="#E1101F" transform="translate(641.81640625,55.90234375)"/>
<path d="M0 0 C6.96914877 6.06616936 12.33952987 12.24487292 15.3515625 21.046875 C15.70863281 21.97242187 16.06570312 22.89796875 16.43359375 23.8515625 C20.07041563 36.5107978 16.47125891 48.16059186 10.984375 59.5078125 C9.28416357 62.15168195 8.2631602 63.00071652 5.3515625 64.046875 C2.60000192 60.54956435 0.14002504 57.13555894 -1.6484375 53.046875 C-1.21398688 50.40975974 -0.40118753 48.96615324 1.1328125 46.80078125 C4.29009103 42.25713362 3.77316696 36.34035323 3.3515625 31.046875 C1.85011606 23.43784981 -1.81292848 16.00895127 -8.015625 11.21875 C-16.99576241 5.5959284 -26.05293821 3.32109489 -36.51953125 5.69921875 C-45.65234647 8.65060009 -51.42069301 13.31842437 -56.1484375 21.671875 C-59.48589971 28.96687436 -60.24469229 36.22526589 -57.69921875 43.9140625 C-56.99630873 45.57638303 -56.24392332 47.21938773 -55.42578125 48.828125 C-54.42675737 51.67961025 -54.74922351 53.18287844 -55.6484375 56.046875 C-56.83984375 58.28515625 -56.83984375 58.28515625 -58.2109375 60.359375 C-58.66597656 61.05675781 -59.12101562 61.75414063 -59.58984375 62.47265625 C-59.93917969 62.99214844 -60.28851563 63.51164062 -60.6484375 64.046875 C-66.57648504 61.54224345 -69.06624459 55.89880569 -71.4609375 50.171875 C-74.94607984 38.72069303 -73.70030634 24.72184349 -68.171875 14.25 C-61.38504937 2.78367359 -51.15419948 -5.09991178 -38.16015625 -8.62890625 C-24.33662517 -10.41328118 -11.30103333 -8.61381694 0 0 Z " fill="#111111" transform="translate(91.6484375,28.953125)"/>
<path d="M0 0 C26.42857143 0 26.42857143 0 35.875 5.75 C41.29975554 11.4938588 42.68055071 17.59415254 42.5 25.3125 C42.48078491 26.56099731 42.48078491 26.56099731 42.46118164 27.8347168 C42.19036451 36.0934338 40.99195669 43.600851 34.75 49.5 C24.61647645 57.72721714 12.49854909 55 0 55 C0 36.85 0 18.7 0 0 Z " fill="#FEFCFC" transform="translate(312,69)"/>
<path d="M0 0 C20.46 0 40.92 0 62 0 C62 4.29 62 8.58 62 13 C54.41 13 46.82 13 39 13 C39 35.44 39 57.88 39 81 C33.72 81 28.44 81 23 81 C23 58.56 23 36.12 23 13 C15.41 13 7.82 13 0 13 C0 8.71 0 4.42 0 0 Z " fill="#E21422" transform="translate(479,56)"/>
<path d="M0 0 C4.95 0 9.9 0 15 0 C15 22.44 15 44.88 15 68 C25.89 68 36.78 68 48 68 C48 72.29 48 76.58 48 81 C32.16 81 16.32 81 0 81 C0 54.27 0 27.54 0 0 Z " fill="#E10E1D" transform="translate(549,56)"/>
<path d="M0 0 C3.73105525 -0.09369104 7.4554973 -0.08712629 11.1875 -0.0625 C12.24259766 -0.09021484 13.29769531 -0.11792969 14.38476562 -0.14648438 C17.49603262 -0.09741076 20.03366059 0.04768157 23 1 C26.2995765 4.50465947 28 8.187798 28 13 C17.44640327 16.01531335 5.03453937 17.01726969 -5 12 C-3.68773508 7.76037486 -2.01806376 3.94766444 0 0 Z " fill="#171717" transform="translate(52,94)"/>
<path d="M0 0 C1 3 1 3 0.22265625 5.04296875 C-0.16019531 5.75066406 -0.54304688 6.45835938 -0.9375 7.1875 C-1.31777344 7.90292969 -1.69804688 8.61835937 -2.08984375 9.35546875 C-2.54037109 10.16951172 -2.54037109 10.16951172 -3 11 C-3.99 10.67 -4.98 10.34 -6 10 C-4.79157144 5.56909529 -3.48331435 3.01887244 0 0 Z " fill="#EEE2E3" transform="translate(50,95)"/>
<path d="M0 0 C0.33 0.66 0.66 1.32 1 2 C-0.04800781 2.06058594 -1.09601563 2.12117188 -2.17578125 2.18359375 C-3.55470048 2.26801738 -4.93360605 2.35266447 -6.3125 2.4375 C-7.34793945 2.49647461 -7.34793945 2.49647461 -8.40429688 2.55664062 C-11.47161535 2.74927415 -14.06968152 3.02322717 -17 4 C-16.67 3.01 -16.34 2.02 -16 1 C-8.08 0.505 -8.08 0.505 0 0 Z " fill="#E62430" transform="translate(455,101)"/>
<path d="M0 0 C0.33 0.99 0.66 1.98 1 3 C-1.17424117 5.50037734 -2.73045798 6.43628586 -6 7 C-4.19587357 3.73539027 -3.16605307 2.11070205 0 0 Z " fill="#EEE2E2" transform="translate(38,83)"/>
</svg>
