<svg width="200" height="200" version="1.1" xmlns="http://www.w3.org/2000/svg" desc="Created with imagetracer.js version 1.2.6" ><path fill="rgb(254,252,252)" stroke="rgb(254,252,252)" stroke-width="1" opacity="1" d="M 121.5 40 L 120.5 42 L 121.5 40 Z " /><path fill="rgb(254,252,252)" stroke="rgb(254,252,252)" stroke-width="1" opacity="1" d="M 74.5 46 L 75.5 48 L 74.5 46 Z " /><path fill="rgb(254,252,252)" stroke="rgb(254,252,252)" stroke-width="1" opacity="1" d="M 64.5 48 L 65.5 50 L 67 49.5 L 64 51.5 L 64 49.5 L 64.5 48 Z " /><path fill="rgb(254,252,252)" stroke="rgb(254,252,252)" stroke-width="1" opacity="1" d="M 69.5 48 L 72 48.5 L 68.5 50 L 69.5 48 Z " /><path fill="rgb(254,252,252)" stroke="rgb(254,252,252)" stroke-width="1" opacity="1" d="M 133.5 49 Q 136.5 50.5 133.5 52 L 133.5 49 Z " /><path fill="rgb(254,252,252)" stroke="rgb(254,252,252)" stroke-width="1" opacity="1" d="M 90.5 59 Q 93.5 58.2 92 62 L 90 61.5 L 90.5 59 Z " /><path fill="rgb(254,252,252)" stroke="rgb(254,252,252)" stroke-width="1" opacity="1" d="M 94.5 59 L 94 60.5 L 93.5 62 L 93 60.5 L 94.5 59 Z " /><path fill="rgb(254,252,252)" stroke="rgb(254,252,252)" stroke-width="1" opacity="1" d="M 103.5 62 L 102.5 64 L 103.5 62 Z " /><path fill="rgb(254,252,252)" stroke="rgb(254,252,252)" stroke-width="1" opacity="1" d="M 89.5 63 L 94 66 L 94.5 68 L 96 67.5 L 93.5 72 L 92 69.5 L 93 67.5 L 91 67.5 L 91.5 66 Q 89.3 66.8 90 64.5 L 89.5 63 Z " /><path fill="rgb(254,252,252)" stroke="rgb(254,252,252)" stroke-width="1" opacity="1" d="M 109.5 64 L 111 66.5 L 108 67 L 109.5 64 Z " /><path fill="rgb(254,252,252)" stroke="rgb(254,252,252)" stroke-width="1" opacity="1" d="M 79.5 65 L 82 66.5 L 83 74.5 Q 81.5 77.5 80 74.5 Q 80.9 71.5 76.5 73 L 75.5 71 L 79.5 72 L 80 69.5 L 79.5 65 Z " /><path fill="rgb(254,252,252)" stroke="rgb(254,252,252)" stroke-width="1" opacity="1" d="M 109.5 68 Q 112.8 66.9 112 69.5 L 112 71.5 L 111.5 73 L 109.5 68 Z " /><path fill="rgb(254,252,252)" stroke="rgb(254,252,252)" stroke-width="1" opacity="1" d="M 105.5 69 Q 108.1 68.2 107 71.5 L 106 71.5 L 105.5 69 Z " /><path fill="rgb(254,252,252)" stroke="rgb(254,252,252)" stroke-width="1" opacity="1" d="M 107.5 73 Q 108.6 75.8 112 75 L 111 77.5 L 112.5 80 L 110 78.5 L 107.5 73 Z " /><path fill="rgb(254,252,252)" stroke="rgb(254,252,252)" stroke-width="1" opacity="1" d="M 121 73 L 124 73.5 L 121 75 L 121 73 Z " /><path fill="rgb(254,252,252)" stroke="rgb(254,252,252)" stroke-width="1" opacity="1" d="M 72.5 74 L 74.5 75 Q 75.8 72.8 77 75.5 Q 75.8 78.3 74.5 76 L 72.5 77 L 72.5 74 Z " /><path fill="rgb(254,252,252)" stroke="rgb(254,252,252)" stroke-width="1" opacity="1" d="M 88.5 77 L 89.5 79 L 87.5 80 L 87 78.5 L 88.5 77 Z " /><path fill="rgb(254,252,252)" stroke="rgb(254,252,252)" stroke-width="1" opacity="1" d="M 53.5 78 L 54 82 L 52 81.5 L 53.5 78 Z " /><path fill="rgb(254,252,252)" stroke="rgb(254,252,252)" stroke-width="1" opacity="1" d="M 73 78 Q 76 77 75 80 Q 72 81 73 78 Z " /><path fill="rgb(254,252,252)" stroke="rgb(254,252,252)" stroke-width="1" opacity="1" d="M 80.5 79 L 82 81.5 L 80 82.5 L 80.5 79 Z " /><path fill="rgb(254,252,252)" stroke="rgb(254,252,252)" stroke-width="1" opacity="1" d="M 125.5 79 L 125 80.5 L 124.5 84 L 124 80.5 L 125.5 79 Z " /><path fill="rgb(254,252,252)" stroke="rgb(254,252,252)" stroke-width="1" opacity="1" d="M 115.5 80 L 117 80.5 L 116.5 82 Q 118.8 82.8 118 80.5 L 119 80.5 L 115.5 87 L 112 82.5 L 113.5 83 L 115 82.5 Q 112.8 81.3 115.5 80 Z " /><path fill="rgb(254,252,252)" stroke="rgb(254,252,252)" stroke-width="1" opacity="1" d="M 86.5 82 L 87 83.5 L 85 88 Q 82 89 83 86 Q 85.7 87.1 85 84.5 L 86.5 82 Z " /><path fill="rgb(254,252,252)" stroke="rgb(254,252,252)" stroke-width="1" opacity="1" d="M 127.5 84 L 130 88.5 L 128 92 Q 124.5 93.1 126 85.5 L 127.5 84 Z " /><path fill="rgb(254,252,252)" stroke="rgb(254,252,252)" stroke-width="1" opacity="1" d="M 120.5 88 L 121 92.5 L 120 94.5 L 120.5 96 L 119 93.5 L 119.5 92 Q 117.3 92.8 118 90.5 L 120.5 88 Z " /><path fill="rgb(254,252,252)" stroke="rgb(254,252,252)" stroke-width="1" opacity="1" d="M 81.5 89 Q 84.3 90.3 82 91.5 Q 82.7 94.1 80 93 L 81.5 89 Z " /><path fill="rgb(254,252,252)" stroke="rgb(254,252,252)" stroke-width="1" opacity="1" d="M 147.5 92 L 148 96 Q 145.3 97.1 146 94.5 L 147.5 92 Z " /><path fill="rgb(254,252,252)" stroke="rgb(254,252,252)" stroke-width="1" opacity="1" d="M 53.5 94 L 52.5 96 L 53.5 94 Z " /><path fill="rgb(254,252,252)" stroke="rgb(254,252,252)" stroke-width="1" opacity="1" d="M 80.5 94 L 78 97.5 L 77.5 100 L 76 96.5 Q 78.2 98.2 80.5 94 Z " /><path fill="rgb(254,252,252)" stroke="rgb(254,252,252)" stroke-width="1" opacity="1" d="M 125.5 95 L 128 95.5 L 126.5 99 Q 122 97 125.5 95 Z " /><path fill="rgb(254,252,252)" stroke="rgb(254,252,252)" stroke-width="1" opacity="1" d="M 98.5 96 L 100.5 99 L 99 98.5 L 98 100.5 L 102 102.5 L 98 104.5 L 97.5 107 Q 94.3 105.3 98 103.5 L 97 97.5 L 98.5 96 Z " /><path fill="rgb(254,252,252)" stroke="rgb(254,252,252)" stroke-width="1" opacity="1" d="M 102.5 97 L 104 99.5 L 102 98.5 L 102.5 97 Z " /><path fill="rgb(254,252,252)" stroke="rgb(254,252,252)" stroke-width="1" opacity="1" d="M 123.5 98 Q 126.2 99.3 124 100.5 L 128 107.5 L 125 105.5 L 122 99.5 L 123.5 98 Z " /><path fill="rgb(254,252,252)" stroke="rgb(254,252,252)" stroke-width="1" opacity="1" d="M 143.5 100 L 142.5 102 L 143.5 100 Z " /><path fill="rgb(254,252,252)" stroke="rgb(254,252,252)" stroke-width="1" opacity="1" d="M 105.5 102 L 107 104.5 L 105 103.5 L 105.5 102 Z " /><path fill="rgb(254,252,252)" stroke="rgb(254,252,252)" stroke-width="1" opacity="1" d="M 73.5 106 L 73 107.5 L 70.5 112 L 71 110.5 L 73.5 106 Z " /><path fill="rgb(254,252,252)" stroke="rgb(254,252,252)" stroke-width="1" opacity="1" d="M 102.5 107 Q 105 108.2 104 112 L 102 112.5 L 104 113.5 L 102.5 114 L 98.5 113 L 95.5 115 L 96.5 113 L 99 111.5 L 99.5 110 L 100 112 Q 102.7 113.1 102 110.5 L 102 108.5 L 102.5 107 Z " /><path fill="rgb(254,252,252)" stroke="rgb(254,252,252)" stroke-width="1" opacity="1" d="M 108.5 109 Q 111.1 108.2 110 111.5 L 112 114.5 L 109.5 113 L 107 114.5 L 109 110.5 L 108.5 109 Z " /><path fill="rgb(254,252,252)" stroke="rgb(254,252,252)" stroke-width="1" opacity="1" d="M 128.5 109 L 133 118 Q 135.7 116.9 135 119.5 L 135.5 121 Q 133.3 121.8 134 119.5 L 128 110.5 L 128.5 109 Z " /><path fill="rgb(254,252,252)" stroke="rgb(254,252,252)" stroke-width="1" opacity="1" d="M 94.5 112 L 93.5 114 L 94.5 112 Z " /><path fill="rgb(254,252,252)" stroke="rgb(254,252,252)" stroke-width="1" opacity="1" d="M 136.5 112 Q 140.8 113.8 138 115.5 L 137.5 117 Q 134.8 115.8 136.5 112 Z " /><path fill="rgb(254,252,252)" stroke="rgb(254,252,252)" stroke-width="1" opacity="1" d="M 139.5 112 Q 141.8 111.3 141 113.5 L 139.5 112 Z " /><path fill="rgb(254,252,252)" stroke="rgb(254,252,252)" stroke-width="1" opacity="1" d="M 88.5 114 L 87.5 116 L 88.5 114 Z " /><path fill="rgb(254,252,252)" stroke="rgb(254,252,252)" stroke-width="1" opacity="1" d="M 67.5 116 L 67 117.5 L 65.5 121 L 65 119.5 L 67.5 116 Z " /><path fill="rgb(254,252,252)" stroke="rgb(254,252,252)" stroke-width="1" opacity="1" d="M 113.5 117 L 115 119.5 L 114 119.5 L 113.5 117 Z " /><path fill="rgb(254,252,252)" stroke="rgb(254,252,252)" stroke-width="1" opacity="1" d="M 142 118 Q 145 117 144 120 Q 141 121 142 118 Z " /><path fill="rgb(254,252,252)" stroke="rgb(254,252,252)" stroke-width="1" opacity="1" d="M 57.5 120 L 59.5 121 Q 60.8 118.8 62 121.5 L 62.5 123 L 63.5 121 L 64 122.5 L 62 125.5 Q 64.5 127 61 128.5 L 59.5 131 L 60 129.5 L 58.5 126 L 56 124.5 L 58 124.5 L 58.5 123 L 59.5 125 Q 62.5 123.5 59.5 122 L 57.5 120 Z " /><path fill="rgb(254,252,252)" stroke="rgb(254,252,252)" stroke-width="1" opacity="1" d="M 84.5 121 L 83.5 123 L 84.5 121 Z " /><path fill="rgb(254,252,252)" stroke="rgb(254,252,252)" stroke-width="1" opacity="1" d="M 115.5 121 L 121 130.5 L 120 130.5 L 115.5 121 Z " /><path fill="rgb(254,252,252)" stroke="rgb(254,252,252)" stroke-width="1" opacity="1" d="M 140 121 L 142 121.5 L 142 123.5 L 141.5 125 L 140 121 Z " /><path fill="rgb(254,252,252)" stroke="rgb(254,252,252)" stroke-width="1" opacity="1" d="M 138.5 123 L 139 124.5 Q 137.5 127.5 136 124.5 L 138 124.5 L 138.5 123 Z " /><path fill="rgb(254,252,252)" stroke="rgb(254,252,252)" stroke-width="1" opacity="1" d="M 82.5 124 L 83 125.5 L 80.5 129 L 80 127.5 L 82.5 124 Z " /><path fill="rgb(254,252,252)" stroke="rgb(254,252,252)" stroke-width="1" opacity="1" d="M 143.5 126 L 144 128.5 L 143 128.5 L 143.5 126 Z " /><path fill="rgb(254,252,252)" stroke="rgb(254,252,252)" stroke-width="1" opacity="1" d="M 52.5 127 L 54.5 127 L 58 127.5 L 51 135.5 L 51 138 Q 48.3 139.1 49 136.5 L 51.5 131 L 53.5 132 L 52 129.5 L 52.5 127 Z " /><path fill="rgb(254,252,252)" stroke="rgb(254,252,252)" stroke-width="1" opacity="1" d="M 112.5 128 Q 116.7 126.9 115 131 Q 111 129.6 113 136.5 L 113.5 138 Q 111.3 138.8 112 136.5 L 110.5 134 L 112 134.5 L 113 129.5 L 112.5 128 Z " /><path fill="rgb(254,252,252)" stroke="rgb(254,252,252)" stroke-width="1" opacity="1" d="M 140.5 129 L 142.5 132 L 144 132.5 L 143 134.5 L 145 134.5 L 145.5 138 L 147 137.5 L 148.5 140 L 150 139.5 L 149 142.5 L 151.5 143 L 154 143.5 L 151.5 144 L 150.5 143 L 148 144.5 L 147.5 142 L 146 142.5 L 147 140 Q 144.3 141.1 145 138.5 L 140 130.5 L 140.5 129 Z " /><path fill="rgb(254,252,252)" stroke="rgb(254,252,252)" stroke-width="1" opacity="1" d="M 152.5 129 L 155 129.5 L 152.5 130 L 152.5 129 Z " /><path fill="rgb(254,252,252)" stroke="rgb(254,252,252)" stroke-width="1" opacity="1" d="M 78 131 Q 81.3 129.9 80 134 L 76.5 136 L 77 134.5 L 78 131 Z " /><path fill="rgb(254,252,252)" stroke="rgb(254,252,252)" stroke-width="1" opacity="1" d="M 120.5 132 Q 122.8 131.3 122 133.5 L 122.5 135 L 120 134 L 118.5 138 L 118 136.5 L 120.5 132 Z " /><path fill="rgb(254,252,252)" stroke="rgb(254,252,252)" stroke-width="1" opacity="1" d="M 158.5 133 L 159 135.5 L 158 135.5 L 158.5 133 Z " /><path fill="rgb(254,252,252)" stroke="rgb(254,252,252)" stroke-width="1" opacity="1" d="M 57.5 134 L 58 135.5 L 54.5 140 L 53.5 138 L 57 135.5 L 57.5 134 Z " /><path fill="rgb(254,252,252)" stroke="rgb(254,252,252)" stroke-width="1" opacity="1" d="M 75.5 137 Q 78.1 136.2 77 139.5 L 74 140.5 L 73.5 143 L 73 140.5 L 75.5 137 Z " /><path fill="rgb(254,252,252)" stroke="rgb(254,252,252)" stroke-width="1" opacity="1" d="M 124.5 137 L 127 140.5 L 126 143 L 121 142.5 L 122 140 Q 125.1 141.1 124.5 137 Z " /><path fill="rgb(254,252,252)" stroke="rgb(254,252,252)" stroke-width="1" opacity="1" d="M 78.5 140 L 81 140.5 L 80.5 143 L 78.5 142 L 77 142.5 L 78.5 140 Z " /><path fill="rgb(254,252,252)" stroke="rgb(254,252,252)" stroke-width="1" opacity="1" d="M 113 140 L 118 140.5 L 117.5 143 Q 111.2 144.9 113 140 Z " /><path fill="rgb(254,252,252)" stroke="rgb(254,252,252)" stroke-width="1" opacity="1" d="M 52.5 143 L 51 145.5 L 46.5 154 Q 42.8 154.8 42 152.5 L 43.5 153 L 45 153 Q 43.5 149.3 46.5 150 L 49 149 L 48 144.5 L 49.5 145 L 52.5 143 Z " /><path fill="rgb(254,252,252)" stroke="rgb(254,252,252)" stroke-width="1" opacity="1" d="M 156.5 143 L 160 144.5 L 156.5 146 Q 153.5 144.5 156.5 143 Z " /><path fill="rgb(254,252,252)" stroke="rgb(254,252,252)" stroke-width="1" opacity="1" d="M 93.5 144 L 94 147.5 L 93 147.5 L 93.5 144 Z " /><path fill="rgb(254,252,252)" stroke="rgb(254,252,252)" stroke-width="1" opacity="1" d="M 149.5 146 Q 151.8 145.3 151 147.5 L 153 150.5 L 151 151 L 149.5 146 Z " /><path fill="rgb(254,252,252)" stroke="rgb(254,252,252)" stroke-width="1" opacity="1" d="M 113.5 147 L 116 150.5 L 112 152 L 113.5 147 Z " /><path fill="rgb(254,252,252)" stroke="rgb(254,252,252)" stroke-width="1" opacity="1" d="M 85.5 149 L 87 151.5 L 85 150.5 L 85.5 149 Z " /><path fill="rgb(254,252,252)" stroke="rgb(254,252,252)" stroke-width="1" opacity="1" d="M 95.5 149 L 96 154.5 L 94 153.5 L 95 151.5 Q 92.8 150.3 95.5 149 Z " /><path fill="rgb(254,252,252)" stroke="rgb(254,252,252)" stroke-width="1" opacity="1" d="M 84.5 152 L 85 155.5 L 84 157.5 L 85 159.5 L 82 159.5 Q 84.3 158.3 81.5 157 L 79 158.5 L 84.5 152 Z " /><path fill="rgb(254,252,252)" stroke="rgb(254,252,252)" stroke-width="1" opacity="1" d="M 116.5 152 L 118 154.5 L 117 154.5 L 116.5 152 Z " /><path fill="rgb(254,252,252)" stroke="rgb(254,252,252)" stroke-width="1" opacity="1" d="M 43.5 155 L 46 156 L 47.5 159 Q 51.3 158.3 52 160.5 L 49.5 161 L 42 157.5 L 44 156.5 L 43.5 155 Z " /><path fill="rgb(254,252,252)" stroke="rgb(254,252,252)" stroke-width="1" opacity="1" d="M 156 155 L 158 155.5 L 154.5 160 L 150.5 161 L 148 160.5 L 150.5 159 L 152.5 159 L 156 156.5 L 156 155 Z " /><path fill="rgb(254,252,252)" stroke="rgb(254,252,252)" stroke-width="1" opacity="1" d="M 92.5 156 L 94 160 Q 90.2 161.2 92.5 156 Z " /><path fill="rgb(254,252,252)" stroke="rgb(254,252,252)" stroke-width="1" opacity="1" d="M 116.5 156 L 120 157.5 L 116 158.5 L 116.5 160 L 114 158.5 L 116 158 L 116.5 156 Z " /><path fill="rgb(254,252,252)" stroke="rgb(254,252,252)" stroke-width="1" opacity="1" d="M 54.5 159 L 59 159.5 L 55.5 161 L 53 160.5 L 54.5 159 Z " /><path fill="rgb(254,252,252)" stroke="rgb(254,252,252)" stroke-width="1" opacity="1" d="M 62 159 L 65 159.5 L 62 161 L 62 159 Z " /><path fill="rgb(254,252,252)" stroke="rgb(254,252,252)" stroke-width="1" opacity="1" d="M 66.5 159 L 73.5 159 L 74 161 L 67.5 161 L 66.5 159 Z " /><path fill="rgb(254,252,252)" stroke="rgb(254,252,252)" stroke-width="1" opacity="1" d="M 124.5 159 Q 127.1 158.3 126 161 L 123 160.5 L 124.5 159 Z " /><path fill="rgb(222,179,179)" stroke="rgb(222,179,179)" stroke-width="1" opacity="1" d="M 94.5 41 L 106 41.5 L 94.5 42 L 94.5 41 Z " /><path fill="rgb(222,179,179)" stroke="rgb(222,179,179)" stroke-width="1" opacity="1" d="M 89.5 42 L 92 42.5 L 89.5 43 L 89.5 42 Z " /><path fill="rgb(222,179,179)" stroke="rgb(222,179,179)" stroke-width="1" opacity="1" d="M 108.5 42 L 111 42.5 L 108.5 43 L 108.5 42 Z " /><path fill="rgb(222,179,179)" stroke="rgb(222,179,179)" stroke-width="1" opacity="1" d="M 78.5 46 L 80 46.5 L 73.5 51 L 75.5 48 L 78.5 46 Z " /><path fill="rgb(222,179,179)" stroke="rgb(222,179,179)" stroke-width="1" opacity="1" d="M 120.5 46 L 123 47.5 L 121.5 47 L 120.5 46 Z " /><path fill="rgb(222,179,179)" stroke="rgb(222,179,179)" stroke-width="1" opacity="1" d="M 124.5 48 L 126.5 51 L 124.5 48 Z " /><path fill="rgb(222,179,179)" stroke="rgb(222,179,179)" stroke-width="1" opacity="1" d="M 71.5 51 L 65.5 58 L 71.5 51 Z " /><path fill="rgb(222,179,179)" stroke="rgb(222,179,179)" stroke-width="1" opacity="1" d="M 128.5 51 L 134.5 58 L 128.5 51 Z " /><path fill="rgb(222,179,179)" stroke="rgb(222,179,179)" stroke-width="1" opacity="1" d="M 93.5 55 L 96 55.5 L 93.5 56 L 93.5 55 Z " /><path fill="rgb(222,179,179)" stroke="rgb(222,179,179)" stroke-width="1" opacity="1" d="M 104.5 55 L 107 55.5 L 104.5 56 L 104.5 55 Z " /><path fill="rgb(222,179,179)" stroke="rgb(222,179,179)" stroke-width="1" opacity="1" d="M 83.5 59 L 81.5 62 L 83.5 59 Z " /><path fill="rgb(222,179,179)" stroke="rgb(222,179,179)" stroke-width="1" opacity="1" d="M 116.5 59 L 118.5 62 L 116.5 59 Z " /><path fill="rgb(222,179,179)" stroke="rgb(222,179,179)" stroke-width="1" opacity="1" d="M 135.5 59 L 139 63.5 L 137 62.5 L 135.5 59 Z " /><path fill="rgb(222,179,179)" stroke="rgb(222,179,179)" stroke-width="1" opacity="1" d="M 63.5 60 L 63 61.5 L 61.5 64 L 62 62.5 L 63.5 60 Z " /><path fill="rgb(222,179,179)" stroke="rgb(222,179,179)" stroke-width="1" opacity="1" d="M 79.5 62 L 76.5 66 L 79.5 62 Z " /><path fill="rgb(222,179,179)" stroke="rgb(222,179,179)" stroke-width="1" opacity="1" d="M 120.5 62 L 123.5 66 L 120.5 62 Z " /><path fill="rgb(222,179,179)" stroke="rgb(222,179,179)" stroke-width="1" opacity="1" d="M 99.5 64 L 98.5 66 L 99.5 64 Z " /><path fill="rgb(222,179,179)" stroke="rgb(222,179,179)" stroke-width="1" opacity="1" d="M 75.5 67 L 74 69.5 L 72.5 72 L 73 70.5 L 75.5 67 Z " /><path fill="rgb(222,179,179)" stroke="rgb(222,179,179)" stroke-width="1" opacity="1" d="M 124.5 67 L 128 71.5 L 126 70.5 L 124.5 67 Z " /><path fill="rgb(222,179,179)" stroke="rgb(222,179,179)" stroke-width="1" opacity="1" d="M 96.5 69 L 95.5 71 L 96.5 69 Z " /><path fill="rgb(222,179,179)" stroke="rgb(222,179,179)" stroke-width="1" opacity="1" d="M 103.5 69 L 104.5 71 L 103.5 69 Z " /><path fill="rgb(222,179,179)" stroke="rgb(222,179,179)" stroke-width="1" opacity="1" d="M 94.5 72 L 95 73.5 L 90.5 80 L 91 78.5 L 94.5 72 Z " /><path fill="rgb(222,179,179)" stroke="rgb(222,179,179)" stroke-width="1" opacity="1" d="M 106.5 74 L 110 79.5 L 108 78.5 L 106.5 74 Z " /><path fill="rgb(222,179,179)" stroke="rgb(222,179,179)" stroke-width="1" opacity="1" d="M 56.5 76 L 57 78.5 L 56 78.5 L 56.5 76 Z " /><path fill="rgb(222,179,179)" stroke="rgb(222,179,179)" stroke-width="1" opacity="1" d="M 143.5 76 L 144 78.5 L 143 78.5 L 143.5 76 Z " /><path fill="rgb(222,179,179)" stroke="rgb(222,179,179)" stroke-width="1" opacity="1" d="M 130.5 79 L 131 90.5 L 130 90.5 L 130.5 79 Z " /><path fill="rgb(222,179,179)" stroke="rgb(222,179,179)" stroke-width="1" opacity="1" d="M 69.5 80 L 70 90.5 L 69 90.5 L 69.5 80 Z " /><path fill="rgb(222,179,179)" stroke="rgb(222,179,179)" stroke-width="1" opacity="1" d="M 89.5 81 L 89 82.5 L 80.5 98 L 80 96.5 L 89.5 81 Z " /><path fill="rgb(222,179,179)" stroke="rgb(222,179,179)" stroke-width="1" opacity="1" d="M 110.5 81 L 119 95.5 L 117 94.5 L 110.5 81 Z " /><path fill="rgb(222,179,179)" stroke="rgb(222,179,179)" stroke-width="1" opacity="1" d="M 55.5 83 L 56 87.5 L 55 87.5 L 55.5 83 Z " /><path fill="rgb(222,179,179)" stroke="rgb(222,179,179)" stroke-width="1" opacity="1" d="M 144.5 83 L 145 87.5 L 144 87.5 L 144.5 83 Z " /><path fill="rgb(222,179,179)" stroke="rgb(222,179,179)" stroke-width="1" opacity="1" d="M 99.5 91 L 102 92.5 L 103 94.5 L 101 93.5 Q 101.7 90.9 99 92 L 97.5 95 L 98 93.5 L 99.5 91 Z " /><path fill="rgb(222,179,179)" stroke="rgb(222,179,179)" stroke-width="1" opacity="1" d="M 56.5 92 L 57 95.5 L 56 95.5 L 56.5 92 Z " /><path fill="rgb(222,179,179)" stroke="rgb(222,179,179)" stroke-width="1" opacity="1" d="M 143.5 92 L 144 95.5 L 143 95.5 L 143.5 92 Z " /><path fill="rgb(222,179,179)" stroke="rgb(222,179,179)" stroke-width="1" opacity="1" d="M 95.5 98 L 95 99.5 L 92.5 104 L 93 102.5 L 95.5 98 Z " /><path fill="rgb(222,179,179)" stroke="rgb(222,179,179)" stroke-width="1" opacity="1" d="M 79.5 99 L 79 100.5 L 77.5 103 L 78 101.5 L 79.5 99 Z " /><path fill="rgb(222,179,179)" stroke="rgb(222,179,179)" stroke-width="1" opacity="1" d="M 120.5 99 L 123 102.5 L 121 101.5 L 120.5 99 Z " /><path fill="rgb(222,179,179)" stroke="rgb(222,179,179)" stroke-width="1" opacity="1" d="M 105.5 100 L 108 103.5 L 106 102.5 L 105.5 100 Z " /><path fill="rgb(222,179,179)" stroke="rgb(222,179,179)" stroke-width="1" opacity="1" d="M 73.5 104 L 73 105.5 L 71.5 108 L 72 106.5 L 73.5 104 Z " /><path fill="rgb(222,179,179)" stroke="rgb(222,179,179)" stroke-width="1" opacity="1" d="M 76.5 104 L 76 105.5 L 73.5 110 L 74 108.5 L 76.5 104 Z " /><path fill="rgb(222,179,179)" stroke="rgb(222,179,179)" stroke-width="1" opacity="1" d="M 123.5 104 L 126 107.5 L 124 106.5 L 123.5 104 Z " /><path fill="rgb(222,179,179)" stroke="rgb(222,179,179)" stroke-width="1" opacity="1" d="M 126.5 104 L 127.5 106 L 126.5 104 Z " /><path fill="rgb(222,179,179)" stroke="rgb(222,179,179)" stroke-width="1" opacity="1" d="M 91.5 105 L 91 106.5 L 88.5 111 L 89 109.5 L 91.5 105 Z " /><path fill="rgb(222,179,179)" stroke="rgb(222,179,179)" stroke-width="1" opacity="1" d="M 108.5 105 L 112 110.5 L 110 109.5 L 108.5 105 Z " /><path fill="rgb(222,179,179)" stroke="rgb(222,179,179)" stroke-width="1" opacity="1" d="M 62.5 109 L 63.5 111 L 62.5 109 Z " /><path fill="rgb(222,179,179)" stroke="rgb(222,179,179)" stroke-width="1" opacity="1" d="M 70.5 109 L 70 110.5 L 67.5 115 L 64 112.5 L 66.5 114 Q 68.8 114.8 68 112.5 L 70.5 109 Z " /><path fill="rgb(222,179,179)" stroke="rgb(222,179,179)" stroke-width="1" opacity="1" d="M 129.5 109 L 132 114 L 135.5 112 L 133.5 115 L 131 113.5 L 129.5 109 Z " /><path fill="rgb(222,179,179)" stroke="rgb(222,179,179)" stroke-width="1" opacity="1" d="M 137.5 109 L 136.5 111 L 137.5 109 Z " /><path fill="rgb(222,179,179)" stroke="rgb(222,179,179)" stroke-width="1" opacity="1" d="M 72.5 111 L 72 112.5 L 70.5 115 L 71 113.5 L 72.5 111 Z " /><path fill="rgb(222,179,179)" stroke="rgb(222,179,179)" stroke-width="1" opacity="1" d="M 87.5 112 L 87 113.5 L 84.5 118 L 85 116.5 L 87.5 112 Z " /><path fill="rgb(222,179,179)" stroke="rgb(222,179,179)" stroke-width="1" opacity="1" d="M 112.5 112 L 116 117.5 L 114 116.5 L 112.5 112 Z " /><path fill="rgb(222,179,179)" stroke="rgb(222,179,179)" stroke-width="1" opacity="1" d="M 128.5 113 L 129.5 115 L 128.5 113 Z " /><path fill="rgb(222,179,179)" stroke="rgb(222,179,179)" stroke-width="1" opacity="1" d="M 89.5 114 L 89 115.5 L 86.5 120 L 87 118.5 L 89.5 114 Z " /><path fill="rgb(222,179,179)" stroke="rgb(222,179,179)" stroke-width="1" opacity="1" d="M 110.5 114 L 114 119.5 L 112 118.5 L 110.5 114 Z " /><path fill="rgb(222,179,179)" stroke="rgb(222,179,179)" stroke-width="1" opacity="1" d="M 92.5 115 L 95 115.5 L 92.5 116 L 92.5 115 Z " /><path fill="rgb(222,179,179)" stroke="rgb(222,179,179)" stroke-width="1" opacity="1" d="M 105.5 115 L 108 115.5 L 105.5 116 L 105.5 115 Z " /><path fill="rgb(222,179,179)" stroke="rgb(222,179,179)" stroke-width="1" opacity="1" d="M 98.5 116 L 102 116.5 L 98.5 117 L 98.5 116 Z " /><path fill="rgb(222,179,179)" stroke="rgb(222,179,179)" stroke-width="1" opacity="1" d="M 68.5 118 L 68 119.5 L 66.5 122 L 67 120.5 L 68.5 118 Z " /><path fill="rgb(222,179,179)" stroke="rgb(222,179,179)" stroke-width="1" opacity="1" d="M 131.5 118 L 135 123.5 L 133 122.5 L 131.5 118 Z " /><path fill="rgb(222,179,179)" stroke="rgb(222,179,179)" stroke-width="1" opacity="1" d="M 83.5 119 L 83 120.5 L 80.5 125 L 81 123.5 L 83.5 119 Z " /><path fill="rgb(222,179,179)" stroke="rgb(222,179,179)" stroke-width="1" opacity="1" d="M 116.5 119 L 121 126.5 L 119 125.5 L 116.5 119 Z " /><path fill="rgb(222,179,179)" stroke="rgb(222,179,179)" stroke-width="1" opacity="1" d="M 84.5 123 L 84 124.5 L 83.5 127 L 83 124.5 L 84.5 123 Z " /><path fill="rgb(222,179,179)" stroke="rgb(222,179,179)" stroke-width="1" opacity="1" d="M 115.5 123 L 117 126.5 L 116 126.5 L 115.5 123 Z " /><path fill="rgb(222,179,179)" stroke="rgb(222,179,179)" stroke-width="1" opacity="1" d="M 63.5 127 L 63 128.5 L 60.5 133 L 61 131.5 L 63.5 127 Z " /><path fill="rgb(222,179,179)" stroke="rgb(222,179,179)" stroke-width="1" opacity="1" d="M 136.5 127 L 140 132.5 L 138 131.5 L 136.5 127 Z " /><path fill="rgb(222,179,179)" stroke="rgb(222,179,179)" stroke-width="1" opacity="1" d="M 88.5 128 L 91 128.5 L 88.5 129 L 88.5 128 Z " /><path fill="rgb(222,179,179)" stroke="rgb(222,179,179)" stroke-width="1" opacity="1" d="M 109.5 128 L 112 128.5 L 109.5 129 L 109.5 128 Z " /><path fill="rgb(222,179,179)" stroke="rgb(222,179,179)" stroke-width="1" opacity="1" d="M 121.5 128 L 124 131.5 L 122 130.5 L 121.5 128 Z " /><path fill="rgb(222,179,179)" stroke="rgb(222,179,179)" stroke-width="1" opacity="1" d="M 77.5 129 L 78 130.5 L 76 131.5 L 77.5 129 Z " /><path fill="rgb(222,179,179)" stroke="rgb(222,179,179)" stroke-width="1" opacity="1" d="M 93.5 129 L 98 129.5 L 93.5 130 L 93.5 129 Z " /><path fill="rgb(222,179,179)" stroke="rgb(222,179,179)" stroke-width="1" opacity="1" d="M 102.5 129 L 107 129.5 L 102.5 130 L 102.5 129 Z " /><path fill="rgb(222,179,179)" stroke="rgb(222,179,179)" stroke-width="1" opacity="1" d="M 124.5 133 L 128 138.5 L 126 137.5 L 124.5 133 Z " /><path fill="rgb(222,179,179)" stroke="rgb(222,179,179)" stroke-width="1" opacity="1" d="M 59.5 134 L 59 135.5 L 52.5 147 L 53 145.5 L 59.5 134 Z " /><path fill="rgb(222,179,179)" stroke="rgb(222,179,179)" stroke-width="1" opacity="1" d="M 140.5 134 L 144 139.5 L 142 138.5 L 140.5 134 Z " /><path fill="rgb(222,179,179)" stroke="rgb(222,179,179)" stroke-width="1" opacity="1" d="M 74.5 135 L 74 136.5 L 71.5 141 L 72 139.5 L 74.5 135 Z " /><path fill="rgb(222,179,179)" stroke="rgb(222,179,179)" stroke-width="1" opacity="1" d="M 144.5 141 L 148 146.5 L 146 145.5 L 144.5 141 Z " /><path fill="rgb(222,179,179)" stroke="rgb(222,179,179)" stroke-width="1" opacity="1" d="M 70.5 142 L 71 144 L 85.5 144 L 86 145.5 L 84 146.5 L 84.5 145 L 70.5 145 L 70.5 142 Z " /><path fill="rgb(222,179,179)" stroke="rgb(222,179,179)" stroke-width="1" opacity="1" d="M 114 144 L 130 144.5 L 115 145.5 L 117 148.5 L 115 147.5 L 114 144 Z " /><path fill="rgb(222,179,179)" stroke="rgb(222,179,179)" stroke-width="1" opacity="1" d="M 50.5 150 L 50 151.5 L 48.5 154 L 49 152.5 L 50.5 150 Z " /><path fill="rgb(222,179,179)" stroke="rgb(222,179,179)" stroke-width="1" opacity="1" d="M 149.5 150 L 152 153.5 L 150 152.5 L 149.5 150 Z " /><path fill="rgb(222,179,179)" stroke="rgb(222,179,179)" stroke-width="1" opacity="1" d="M 81.5 152 L 81 153.5 L 78.5 158 L 47.5 158 L 46 156.5 L 48 155.5 L 47.5 157 L 78.5 157 L 79 155.5 L 81.5 152 Z " /><path fill="rgb(222,179,179)" stroke="rgb(222,179,179)" stroke-width="1" opacity="1" d="M 118.5 152 L 121 155.5 L 119 154.5 L 118.5 152 Z " /><path fill="rgb(222,179,179)" stroke="rgb(222,179,179)" stroke-width="1" opacity="1" d="M 152.5 155 Q 155.5 156.5 152.5 158 L 121 157.5 L 153 156.5 L 152.5 155 Z " /><path fill="rgb(254,255,255)" stroke="rgb(254,255,255)" stroke-width="1" opacity="1" d="M 76.5 40 L 76 41.5 L 74.5 44 L 75 42.5 L 76.5 40 Z " /><path fill="rgb(254,255,255)" stroke="rgb(254,255,255)" stroke-width="1" opacity="1" d="M 126.5 41 L 127.5 43 L 126.5 41 Z " /><path fill="rgb(254,255,255)" stroke="rgb(254,255,255)" stroke-width="1" opacity="1" d="M 124.5 45 L 127 45.5 L 124.5 46 L 124.5 45 Z " /><path fill="rgb(254,255,255)" stroke="rgb(254,255,255)" stroke-width="1" opacity="1" d="M 59.5 56 L 58.5 58 L 57 57.5 L 59.5 56 Z " /><path fill="rgb(254,255,255)" stroke="rgb(254,255,255)" stroke-width="1" opacity="1" d="M 140.5 56 L 143 57.5 L 141.5 58 L 140.5 56 Z " /><path fill="rgb(254,255,255)" stroke="rgb(254,255,255)" stroke-width="1" opacity="1" d="M 98 57 L 102 57 L 102 58.5 L 99.5 60 L 98 57 Z " /><path fill="rgb(254,255,255)" stroke="rgb(254,255,255)" stroke-width="1" opacity="1" d="M 104.5 58 L 105.5 60 L 104.5 58 Z " /><path fill="rgb(254,255,255)" stroke="rgb(254,255,255)" stroke-width="1" opacity="1" d="M 59.5 60 L 58.5 62 L 59.5 60 Z " /><path fill="rgb(254,255,255)" stroke="rgb(254,255,255)" stroke-width="1" opacity="1" d="M 140.5 60 L 141.5 62 L 140.5 60 Z " /><path fill="rgb(254,255,255)" stroke="rgb(254,255,255)" stroke-width="1" opacity="1" d="M 106.5 62 L 105.5 64 L 104 63.5 L 106.5 62 Z " /><path fill="rgb(254,255,255)" stroke="rgb(254,255,255)" stroke-width="1" opacity="1" d="M 84.5 63 L 87 64 L 88.5 69 L 90.5 68 L 90.5 69 Q 87.8 68.4 89 74.5 L 85.5 81 L 86 79.5 L 82 64 L 84.5 63 Z " /><path fill="rgb(254,255,255)" stroke="rgb(254,255,255)" stroke-width="1" opacity="1" d="M 105.5 66 L 107 66 L 107 68 Q 109.7 66.9 109 69.5 L 110 71.5 L 109 71.5 L 105.5 66 Z " /><path fill="rgb(254,255,255)" stroke="rgb(254,255,255)" stroke-width="1" opacity="1" d="M 48 72 Q 51 70.8 50 74.5 L 48.5 78 L 48 72 Z " /><path fill="rgb(254,255,255)" stroke="rgb(254,255,255)" stroke-width="1" opacity="1" d="M 150 72 Q 154 70.6 152 77.5 L 151 77.5 L 150 72 Z " /><path fill="rgb(254,255,255)" stroke="rgb(254,255,255)" stroke-width="1" opacity="1" d="M 55.5 73 L 56 75 L 53 76.5 L 51.5 80 L 51 78.5 L 55.5 73 Z " /><path fill="rgb(254,255,255)" stroke="rgb(254,255,255)" stroke-width="1" opacity="1" d="M 144.5 73 L 149 79.5 L 148 79.5 L 145.5 75 Q 142.7 75.7 144.5 73 Z " /><path fill="rgb(254,255,255)" stroke="rgb(254,255,255)" stroke-width="1" opacity="1" d="M 124.5 74 Q 127.5 75.5 124.5 77 L 124.5 74 Z " /><path fill="rgb(254,255,255)" stroke="rgb(254,255,255)" stroke-width="1" opacity="1" d="M 81.5 76 L 82 79 L 84 79.5 L 84 81.5 L 84.5 84 L 86 83.5 Q 84 87 82 82.5 Q 83.7 77.7 79.5 79 L 81.5 76 Z " /><path fill="rgb(254,255,255)" stroke="rgb(254,255,255)" stroke-width="1" opacity="1" d="M 125.5 78 L 129 79 L 128.5 83 L 126.5 79 L 125.5 78 Z " /><path fill="rgb(254,255,255)" stroke="rgb(254,255,255)" stroke-width="1" opacity="1" d="M 119 79 L 123 80.5 Q 123.5 84.5 120.5 85 Q 117.8 83.6 119 79 Z " /><path fill="rgb(254,255,255)" stroke="rgb(254,255,255)" stroke-width="1" opacity="1" d="M 150.5 80 Q 152.8 79.3 152 81.5 L 150.5 80 Z " /><path fill="rgb(254,255,255)" stroke="rgb(254,255,255)" stroke-width="1" opacity="1" d="M 79 83 L 83 85.5 L 81.5 89 L 79 88 L 79 83 Z " /><path fill="rgb(254,255,255)" stroke="rgb(254,255,255)" stroke-width="1" opacity="1" d="M 124.5 85 L 126 88.5 L 124 96 Q 119.1 97.8 121 91.5 L 124.5 85 Z " /><path fill="rgb(254,255,255)" stroke="rgb(254,255,255)" stroke-width="1" opacity="1" d="M 150.5 88 L 151 90.5 L 150 90.5 L 150.5 88 Z " /><path fill="rgb(254,255,255)" stroke="rgb(254,255,255)" stroke-width="1" opacity="1" d="M 54.5 92 Q 57.5 93.5 54.5 95 L 54.5 92 Z " /><path fill="rgb(254,255,255)" stroke="rgb(254,255,255)" stroke-width="1" opacity="1" d="M 127.5 93 L 128 95 L 126 94.5 L 127.5 93 Z " /><path fill="rgb(254,255,255)" stroke="rgb(254,255,255)" stroke-width="1" opacity="1" d="M 73 95 L 76 95.5 L 73.5 97 L 73 95 Z " /><path fill="rgb(254,255,255)" stroke="rgb(254,255,255)" stroke-width="1" opacity="1" d="M 103.5 103 Q 106.5 102.2 105 106 Q 100.4 107.3 99 104.5 L 103.5 103 Z " /><path fill="rgb(254,255,255)" stroke="rgb(254,255,255)" stroke-width="1" opacity="1" d="M 95.5 106 L 94.5 108 L 95.5 106 Z " /><path fill="rgb(254,255,255)" stroke="rgb(254,255,255)" stroke-width="1" opacity="1" d="M 107.5 108 L 107 109.5 L 106.5 111 L 106 109.5 L 107.5 108 Z " /><path fill="rgb(254,255,255)" stroke="rgb(254,255,255)" stroke-width="1" opacity="1" d="M 98.5 109 L 99 110.5 L 97 111.5 L 98.5 109 Z " /><path fill="rgb(254,255,255)" stroke="rgb(254,255,255)" stroke-width="1" opacity="1" d="M 56.5 111 L 58.5 111 L 60.5 112 L 63 111 Q 62.2 115.5 65 117.5 Q 63.7 120.3 62.5 118 Q 55.3 116.8 54 121.5 L 54 127 L 51.5 127 Q 48.8 128.4 50 133 Q 46 131.6 48 138.5 L 47 138.5 L 47 120.5 Q 49.2 119.2 48 114.5 L 50.5 112 Q 55.3 113.3 56.5 111 Z " /><path fill="rgb(254,255,255)" stroke="rgb(254,255,255)" stroke-width="1" opacity="1" d="M 141.5 114 L 142 120 L 138.5 119 L 137.5 123 L 136 121.5 L 136.5 119 Q 138.8 119.8 138 117.5 L 139.5 118 L 141 118 L 141.5 114 Z " /><path fill="rgb(254,255,255)" stroke="rgb(254,255,255)" stroke-width="1" opacity="1" d="M 144.5 120 L 145 124.5 L 144 124.5 L 144.5 120 Z " /><path fill="rgb(254,255,255)" stroke="rgb(254,255,255)" stroke-width="1" opacity="1" d="M 138 125 L 140 125.5 L 139.5 128 L 138 125 Z " /><path fill="rgb(254,255,255)" stroke="rgb(254,255,255)" stroke-width="1" opacity="1" d="M 142.5 125 L 142 126.5 L 143 130.5 L 142 130.5 L 141 126.5 L 142.5 125 Z " /><path fill="rgb(254,255,255)" stroke="rgb(254,255,255)" stroke-width="1" opacity="1" d="M 82 127 L 86 128.5 L 82 129 L 82 127 Z " /><path fill="rgb(254,255,255)" stroke="rgb(254,255,255)" stroke-width="1" opacity="1" d="M 57 128 L 60 129.5 L 57 131 Q 58.1 133.7 55.5 133 L 56 131.5 L 57 128 Z " /><path fill="rgb(254,255,255)" stroke="rgb(254,255,255)" stroke-width="1" opacity="1" d="M 116 128 Q 119 126.8 118 130.5 L 119 134.5 L 117 139 L 114 139 L 114 131 Q 117.3 132.1 116 128 Z " /><path fill="rgb(254,255,255)" stroke="rgb(254,255,255)" stroke-width="1" opacity="1" d="M 145.5 128 Q 148.8 126.9 148 129.5 L 156 135.5 L 159 142.5 L 155.5 144 L 155 136 L 151 136 L 151 137.5 L 152 140.5 L 151 140.5 L 149 137.5 L 149.5 136 Q 144.1 137.9 145 134.5 L 144 129.5 L 145.5 128 Z " /><path fill="rgb(254,255,255)" stroke="rgb(254,255,255)" stroke-width="1" opacity="1" d="M 87.5 129 L 89 136 L 87 135.5 L 87.5 129 Z " /><path fill="rgb(254,255,255)" stroke="rgb(254,255,255)" stroke-width="1" opacity="1" d="M 89.5 131 L 92 132.5 L 89 133 L 89.5 131 Z " /><path fill="rgb(254,255,255)" stroke="rgb(254,255,255)" stroke-width="1" opacity="1" d="M 98.5 132 L 100.5 133 L 102 132.5 L 99.5 134 L 98.5 132 Z " /><path fill="rgb(254,255,255)" stroke="rgb(254,255,255)" stroke-width="1" opacity="1" d="M 53.5 133 L 54 135.5 L 53 135.5 L 53.5 133 Z " /><path fill="rgb(254,255,255)" stroke="rgb(254,255,255)" stroke-width="1" opacity="1" d="M 80.5 134 L 81 136 L 84 137.5 L 81 138 L 80.5 140 L 77 137.5 L 78.5 135 L 79.5 137 L 80.5 134 Z " /><path fill="rgb(254,255,255)" stroke="rgb(254,255,255)" stroke-width="1" opacity="1" d="M 49 138 Q 52.3 136.7 51 141.5 L 49 140.5 L 49 138 Z " /><path fill="rgb(254,255,255)" stroke="rgb(254,255,255)" stroke-width="1" opacity="1" d="M 119.5 138 Q 123.3 137 122 140 Q 119.3 138.9 120 141.5 L 120.5 143 L 118 141.5 L 119.5 138 Z " /><path fill="rgb(254,255,255)" stroke="rgb(254,255,255)" stroke-width="1" opacity="1" d="M 83.5 140 L 88 140.5 L 85.5 142 L 83.5 140 Z " /><path fill="rgb(254,255,255)" stroke="rgb(254,255,255)" stroke-width="1" opacity="1" d="M 111.5 141 L 112 143.5 L 111 143.5 L 111.5 141 Z " /><path fill="rgb(254,255,255)" stroke="rgb(254,255,255)" stroke-width="1" opacity="1" d="M 42.5 143 L 47 143.5 L 45 144 L 45 151 Q 41.3 149.5 42 152.5 L 40 152.5 L 41 155.5 L 40 156.5 L 41.5 159 L 40 159.5 L 42 160.5 L 36.5 161 L 35 159.5 L 34 151.5 L 32 149.5 L 32 144 L 39.5 145 L 42.5 143 Z " /><path fill="rgb(254,255,255)" stroke="rgb(254,255,255)" stroke-width="1" opacity="1" d="M 87.5 143 L 90 144.5 L 88.5 148 L 87.5 143 Z " /><path fill="rgb(254,255,255)" stroke="rgb(254,255,255)" stroke-width="1" opacity="1" d="M 94.5 143 L 97 143 L 97 148.5 L 96 148.5 Q 97.9 143.1 94.5 144 L 94.5 143 Z " /><path fill="rgb(254,255,255)" stroke="rgb(254,255,255)" stroke-width="1" opacity="1" d="M 151.5 146 L 156 146.5 L 154 147.5 L 160 148 L 160.5 146 L 161 149 L 155.5 149 L 155 150.5 L 156.5 153 L 152 149.5 L 151.5 146 Z " /><path fill="rgb(254,255,255)" stroke="rgb(254,255,255)" stroke-width="1" opacity="1" d="M 93.5 148 L 93 149.5 L 92 152.5 L 94 156 L 97 157.5 L 95.5 161 Q 93 159.8 94 156 L 90 156 Q 92.4 163.1 86 161 L 86.5 159 Q 87.8 161.3 89 158.5 L 87 155 Q 91.9 156.8 90 150.5 L 93.5 148 Z " /><path fill="rgb(254,255,255)" stroke="rgb(254,255,255)" stroke-width="1" opacity="1" d="M 160.5 153 L 161 156 Q 158.3 157.1 159 154.5 L 160.5 153 Z " /><path fill="rgb(254,255,255)" stroke="rgb(254,255,255)" stroke-width="1" opacity="1" d="M 111 154 Q 114 152.8 113 156.5 L 112 159.5 L 113 159.5 L 113.5 158 L 114 161 L 111 161 L 111 154 Z " /><path fill="rgb(254,255,255)" stroke="rgb(254,255,255)" stroke-width="1" opacity="1" d="M 119.5 158 L 119.5 160 L 122 160.5 L 118 161 L 119.5 158 Z " /><path fill="rgb(254,255,255)" stroke="rgb(254,255,255)" stroke-width="1" opacity="1" d="M 158.5 158 Q 161.8 156.9 161 159.5 Q 159.6 162.3 155 161 Q 153.9 158.3 156.5 159 L 159.5 160 L 159.5 159 L 158.5 158 Z " /><path fill="rgb(254,255,255)" stroke="rgb(254,255,255)" stroke-width="1" opacity="1" d="M 79.5 160 L 82 160.5 L 79.5 161 L 79.5 160 Z " /><path fill="rgb(255,255,255)" stroke="rgb(255,255,255)" stroke-width="1" opacity="1" d="M 0 0 L 200 0 L 200 200 L 0 200 L 0 0 Z M 77 40 L 75 42 Q 71 41 72 44 L 75 45 Q 74 47 73 45 L 72 47 L 75 49 L 72 51 L 69 50 L 69 53 Q 61 60 57 71 Q 58 74 56 73 L 51 79 L 52 87 L 51 87 Q 52 79 49 80 L 52 92 L 54 84 L 55 87 L 54 89 L 54 93 Q 57 93 56 98 L 56 100 L 59 104 Q 60 109 58 111 L 57 110 L 56 110 L 56 112 L 51 112 L 48 115 Q 49 119 47 121 L 47 139 Q 50 139 49 144 L 50 145 L 47 143 Q 41 142 40 145 L 32 144 L 32 150 L 34 152 L 35 160 L 37 161 L 42 161 L 46 158 L 45 160 L 49 161 L 51 160 L 54 161 L 56 161 L 60 159 L 62 159 Q 61 162 64 161 Q 66 157 68 161 L 78 160 L 79 160 Q 78 162 82 161 L 83 158 L 87 161 L 90 161 L 90 156 Q 94 155 92 160 L 96 161 L 97 158 L 95 156 L 93 157 L 94 155 L 96 155 L 97 143 L 93 145 Q 95 150 92 149 Q 89 150 90 155 Q 86 157 87 153 L 87 151 L 90 145 L 89 143 L 81 142 L 81 141 L 88 142 L 88 140 L 81 140 L 81 138 L 88 138 L 81 136 L 79 131 Q 78 128 81 129 L 83 129 L 87 128 L 87 136 L 94 135 L 88 134 L 89 131 L 89 133 L 95 134 Q 97 135 96 132 L 92 131 L 92 130 L 95 131 L 97 130 L 99 131 L 103 130 L 106 131 L 106 132 Q 103 131 104 134 L 111 133 L 111 131 Q 113 130 112 133 Q 111 135 107 134 L 106 136 L 111 135 L 112 138 L 115 139 L 118 138 L 119 139 L 111 142 Q 110 149 113 153 Q 114 155 111 154 L 111 161 L 114 161 L 115 159 L 117 160 L 115 158 L 117 158 Q 120 157 118 161 L 122 161 L 124 161 L 129 159 L 144 159 L 149 161 L 151 161 L 154 160 L 156 161 Q 160 162 161 160 Q 162 157 160 158 L 161 156 L 160 152 L 158 153 Q 153 151 157 149 Q 163 151 161 146 L 158 146 L 160 145 L 157 144 L 159 143 L 156 136 L 150 131 L 148 128 L 145 129 L 144 126 L 143 128 L 142 127 L 145 125 L 144 120 Q 145 117 142 118 Q 143 113 140 111 L 139 113 L 140 114 L 137 113 Q 136 110 139 111 L 138 110 L 141 111 L 142 104 L 143 109 L 144 106 L 143 102 L 143 100 L 146 93 L 146 84 L 145 83 Q 144 79 147 80 L 148 84 L 149 80 L 148 77 L 143 73 L 144 71 L 144 68 L 143 70 L 142 70 L 143 68 L 143 65 L 142 67 L 132 53 Q 129 54 130 52 L 131 50 L 129 51 L 126 49 L 126 48 L 128 49 L 128 45 L 123 43 L 120 45 L 124 45 L 125 47 L 119 45 L 119 44 Q 121 45 120 42 L 118 41 L 114 42 L 112 42 L 107 40 Q 95 38 89 42 L 89 40 Q 86 39 87 43 L 84 44 L 84 43 Q 86 44 85 40 L 80 43 L 76 43 L 80 42 L 77 40 Z M 122 40 L 121 42 L 125 42 Q 124 45 128 44 L 127 40 L 125 41 L 122 40 Z M 70 48 L 71 49 Q 72 51 73 49 L 70 48 Z M 130 48 Q 129 50 133 50 L 132 52 L 135 55 L 136 53 L 134 53 L 135 51 L 130 48 Z M 67 49 L 67 50 L 69 50 L 67 49 Z M 65 51 Q 63 54 66 55 L 68 52 L 66 53 L 65 51 Z M 58 56 Q 55 57 56 61 L 60 63 L 61 60 L 59 60 L 61 57 L 60 56 L 58 56 Z M 63 56 L 61 59 L 62 60 Q 66 58 63 56 Z M 138 56 L 136 58 L 139 60 L 138 56 Z M 140 56 L 140 59 L 141 60 Q 138 59 139 62 Q 141 65 143 61 Q 146 62 144 58 Q 143 55 142 57 L 140 56 Z M 58 63 L 59 65 Q 60 62 58 63 Z M 141 63 L 141 65 L 143 64 L 141 63 Z M 58 65 L 57 68 L 58 68 L 58 65 Z M 48 72 L 49 78 L 50 75 Q 51 71 48 72 Z M 150 72 L 151 78 L 152 78 Q 154 71 150 72 Z M 149 80 L 150 83 L 150 82 L 152 82 Q 153 78 149 80 Z M 150 84 L 149 88 L 150 88 L 150 84 Z M 148 85 L 146 94 Q 145 97 148 96 L 149 90 L 148 85 Z M 49 88 L 48 95 L 49 95 L 49 88 Z M 151 88 L 150 96 L 151 96 L 151 88 Z M 53 94 L 51 96 L 55 96 Q 56 93 53 94 Z M 57 103 L 56 106 L 57 109 L 58 109 Q 59 102 57 103 Z M 153 129 L 153 130 L 155 130 L 153 129 Z M 99 132 L 100 134 L 102 133 L 99 132 Z M 159 133 L 158 136 L 159 136 L 159 133 Z M 99 135 L 99 136 L 102 136 L 99 135 Z " /><path fill="rgb(255,255,255)" stroke="rgb(255,255,255)" stroke-width="1" opacity="1" d="M 80.5 44 L 82 44.5 L 75.5 47 L 76.5 45 L 80.5 44 Z " /><path fill="rgb(255,255,255)" stroke="rgb(255,255,255)" stroke-width="1" opacity="1" d="M 99.5 55 L 105.5 56 L 107 57.5 L 108 59.5 L 106 60 Q 107.1 62.7 104.5 62 L 103 61.5 Q 103.8 63.8 101.5 63 L 99.5 62 L 96 64.5 L 97 61.5 L 95.5 62 L 89 63 L 91.5 68 L 93 67.5 L 90.5 73 L 90 71.5 L 91 68 L 89 68 L 89 66 Q 86.3 67.1 87 64.5 L 87.5 63 L 85.5 64 L 86.5 62 L 93.5 62 L 94 60 L 92 59.5 L 94 56 L 99.5 55 Z M 100 56 L 96 57 L 97 61 L 103 61 L 103 60 L 105 60 L 106 60 Q 104 56 100 56 Z " /><path fill="rgb(255,255,255)" stroke="rgb(255,255,255)" stroke-width="1" opacity="1" d="M 90.5 57 L 91 59 L 88 59.5 L 91 60.5 L 88.5 61 Q 85.5 59.5 88.5 58 L 90.5 57 Z " /><path fill="rgb(255,255,255)" stroke="rgb(255,255,255)" stroke-width="1" opacity="1" d="M 108.5 57 L 113.5 60 Q 114.8 57.8 116 60.5 L 116.5 62 L 118 61.5 L 119.5 64 L 121 64.5 L 120 67.5 L 121 67.5 Q 120.3 65.3 122.5 66 L 122 67.5 L 123.5 70 L 124.5 68 L 126 73.5 L 129 77.5 L 127 78.5 L 127 76.5 L 122.5 71 L 121.5 73 L 120 72.5 Q 118.7 77.3 121 78.5 L 118 80.5 Q 118.8 82.8 116.5 82 L 116.5 80 L 114.5 81 L 114 79 L 111 77.5 L 112 75 Q 109 76.3 110 72.5 L 112 72.5 L 111 70.5 L 114 63.5 L 107 62.5 L 114 61.5 Q 112.8 58.7 111.5 61 Q 107.8 62.3 109 58.5 L 108.5 57 Z M 115 62 L 116 64 L 118 64 L 115 62 Z M 120 69 Q 119 72 122 71 Q 123 68 120 69 Z " /><path fill="rgb(255,255,255)" stroke="rgb(255,255,255)" stroke-width="1" opacity="1" d="M 85.5 59 L 85 60.5 L 83.5 63 Q 80.5 61.5 83.5 60 L 85.5 59 Z " /><path fill="rgb(255,255,255)" stroke="rgb(255,255,255)" stroke-width="1" opacity="1" d="M 81.5 63 L 82 65.5 L 80.5 65 L 79 64.5 L 81.5 63 Z " /><path fill="rgb(255,255,255)" stroke="rgb(255,255,255)" stroke-width="1" opacity="1" d="M 107 64 L 109 64.5 L 108 67 L 111 67.5 L 107 68 L 107 64 Z " /><path fill="rgb(255,255,255)" stroke="rgb(255,255,255)" stroke-width="1" opacity="1" d="M 77.5 66 Q 79.8 65.3 79 67.5 L 80 69.5 L 78 69.5 Q 77.3 71.8 79.5 71 L 79.5 72 L 75.5 70 L 75 71.5 L 76 73.5 L 72 76.5 L 73 80 Q 76 81.3 75 77.5 Q 75.8 74.3 80.5 75 L 80.5 76 L 77 77 L 76 79.5 L 78.5 80 L 80 79.5 L 79 87.5 L 81 90.5 L 80 92.5 Q 82.8 94.3 78.5 96 L 73.5 95 Q 72.3 97.3 71 94.5 L 72 90.5 L 70 90.5 L 70 89 L 72 88.5 L 72 83.5 L 71 83.5 L 70.5 88 L 70 83.5 Q 72.5 82 71 76.5 L 74 73.5 L 75.5 68 L 76.5 70 L 78 67.5 L 77.5 66 Z " /><path fill="rgb(255,255,255)" stroke="rgb(255,255,255)" stroke-width="1" opacity="1" d="M 83.5 69 L 87 81.5 L 86 81.5 Q 86.8 79.3 84.5 80 L 82.5 79 L 81 79.5 L 83.5 69 Z " /><path fill="rgb(255,255,255)" stroke="rgb(255,255,255)" stroke-width="1" opacity="1" d="M 121.5 75 L 125 77.5 L 127 84.5 L 124 85.5 L 121.5 91 L 120 85.5 Q 124.3 84.3 123 77.5 L 121.5 75 Z M 125 80 L 124 84 L 125 84 L 125 80 Z " /><path fill="rgb(255,255,255)" stroke="rgb(255,255,255)" stroke-width="1" opacity="1" d="M 54.5 80 L 55 82.5 L 54 82.5 L 54.5 80 Z " /><path fill="rgb(255,255,255)" stroke="rgb(255,255,255)" stroke-width="1" opacity="1" d="M 129.5 83 L 130 87.5 L 129 87.5 L 129.5 83 Z " /><path fill="rgb(255,255,255)" stroke="rgb(255,255,255)" stroke-width="1" opacity="1" d="M 125.5 89 L 126 92 Q 130.1 90.3 129 94.5 L 128 94.5 L 127.5 93 L 124 96.5 L 125.5 99 L 123.5 98 L 122 98.5 L 121 96.5 L 124 95.5 L 125.5 89 Z " /><path fill="rgb(255,255,255)" stroke="rgb(255,255,255)" stroke-width="1" opacity="1" d="M 99.5 95 L 102 96.5 L 100.5 96 L 99.5 95 Z " /><path fill="rgb(255,255,255)" stroke="rgb(255,255,255)" stroke-width="1" opacity="1" d="M 98.5 97 L 102 101.5 L 100.5 101 L 98 100.5 L 99 98.5 L 98.5 97 Z " /><path fill="rgb(255,255,255)" stroke="rgb(255,255,255)" stroke-width="1" opacity="1" d="M 96.5 106 L 99 111.5 L 98.5 113 L 102 112.5 L 100 112 Q 99 109 102 110 Q 101 113 104 112 Q 105 107.8 102 106.5 L 105 106 L 106 108.5 L 105 114 L 107 114.5 L 105.5 115 L 103.5 115 L 98.5 116 L 95.5 114 L 92.5 115 L 92.5 114 Q 95.8 115.1 95 112.5 L 93 112.5 L 94 109.5 L 96.5 106 Z M 99 114 L 99 115 L 102 115 L 99 114 Z " /><path fill="rgb(255,255,255)" stroke="rgb(255,255,255)" stroke-width="1" opacity="1" d="M 61.5 109 L 60.5 111 L 61.5 109 Z " /><path fill="rgb(255,255,255)" stroke="rgb(255,255,255)" stroke-width="1" opacity="1" d="M 108.5 110 L 108 111.5 Q 108.8 113.8 106.5 113 L 108.5 110 Z " /><path fill="rgb(255,255,255)" stroke="rgb(255,255,255)" stroke-width="1" opacity="1" d="M 63.5 112 L 67 116.5 L 64.5 115 Q 61.4 115.7 63.5 112 Z " /><path fill="rgb(255,255,255)" stroke="rgb(255,255,255)" stroke-width="1" opacity="1" d="M 135.5 113 L 136 114.5 L 135.5 116 L 138 117.5 Q 138.8 119.8 136.5 119 L 134 115.5 L 135.5 113 Z " /><path fill="rgb(255,255,255)" stroke="rgb(255,255,255)" stroke-width="1" opacity="1" d="M 57.5 118 Q 63.8 116.8 65 120.5 L 63 120.5 L 62.5 123 L 60.5 120 L 58.5 121 L 56.5 120 L 57 121.5 L 56 124.5 L 59 126 L 58.5 128 L 54.5 127 L 53 127.5 Q 55.3 126.2 54 121.5 L 57.5 118 Z " /><path fill="rgb(255,255,255)" stroke="rgb(255,255,255)" stroke-width="1" opacity="1" d="M 138 120 L 142 120.5 L 140 121 L 141 125 Q 138.3 126.1 139 123.5 L 138 120 Z " /><path fill="rgb(255,255,255)" stroke="rgb(255,255,255)" stroke-width="1" opacity="1" d="M 59.5 122 Q 62.5 123.5 59.5 125 L 59.5 122 Z " /><path fill="rgb(255,255,255)" stroke="rgb(255,255,255)" stroke-width="1" opacity="1" d="M 62.5 125 L 61.5 127 L 62.5 125 Z " /><path fill="rgb(255,255,255)" stroke="rgb(255,255,255)" stroke-width="1" opacity="1" d="M 116.5 127 L 118 127.5 L 116 128 L 115.5 131 L 115 128.5 L 116.5 127 Z " /><path fill="rgb(255,255,255)" stroke="rgb(255,255,255)" stroke-width="1" opacity="1" d="M 52.5 130 L 53.5 132 Q 50.7 132.7 52.5 130 Z " /><path fill="rgb(255,255,255)" stroke="rgb(255,255,255)" stroke-width="1" opacity="1" d="M 113.5 131 L 114 136.5 L 113 136.5 L 113.5 131 Z " /><path fill="rgb(255,255,255)" stroke="rgb(255,255,255)" stroke-width="1" opacity="1" d="M 52.5 134 L 53 138 Q 50 139.3 51 135.5 L 52.5 134 Z " /><path fill="rgb(255,255,255)" stroke="rgb(255,255,255)" stroke-width="1" opacity="1" d="M 147.5 137 L 150 138.5 Q 148.5 141.5 147 138.5 L 147.5 137 Z " /><path fill="rgb(255,255,255)" stroke="rgb(255,255,255)" stroke-width="1" opacity="1" d="M 77.5 138 L 78 142 Q 75.3 143.1 76 140.5 L 77.5 138 Z " /><path fill="rgb(255,255,255)" stroke="rgb(255,255,255)" stroke-width="1" opacity="1" d="M 152 144 L 156 145.5 L 152 146 L 152 144 Z " /><path fill="rgb(255,255,255)" stroke="rgb(255,255,255)" stroke-width="1" opacity="1" d="M 42.5 151 Q 46.3 150 45 153 L 42.5 151 Z " /><path fill="rgb(255,255,255)" stroke="rgb(255,255,255)" stroke-width="1" opacity="1" d="M 42.5 154 L 44 156.5 L 42 157 L 42.5 154 Z " /><path fill="rgb(255,255,255)" stroke="rgb(255,255,255)" stroke-width="1" opacity="1" d="M 45 154 L 47 154.5 L 45 155.5 L 45 154 Z " /><path fill="rgb(252,239,235)" stroke="rgb(252,239,235)" stroke-width="1" opacity="1" d="M 127.5 48 L 127.5 51 Q 124.5 49.5 127.5 48 Z " /><path fill="rgb(252,239,235)" stroke="rgb(252,239,235)" stroke-width="1" opacity="1" d="M 73.5 49 L 72.5 51 L 73.5 49 Z " /><path fill="rgb(252,239,235)" stroke="rgb(252,239,235)" stroke-width="1" opacity="1" d="M 88.5 57 L 90 57.5 L 86.5 59 L 86.5 58 L 88.5 57 Z " /><path fill="rgb(252,239,235)" stroke="rgb(252,239,235)" stroke-width="1" opacity="1" d="M 111.5 57 L 114 58.5 L 112.5 59 L 111.5 57 Z " /><path fill="rgb(252,239,235)" stroke="rgb(252,239,235)" stroke-width="1" opacity="1" d="M 80.5 62 L 82 62.5 L 76.5 67 L 80.5 62 Z " /><path fill="rgb(252,239,235)" stroke="rgb(252,239,235)" stroke-width="1" opacity="1" d="M 98.5 63 Q 103.3 62.3 104 65.5 Q 102.9 68.8 105.5 68 L 106 70.5 L 106.5 72 L 108 71.5 L 107 73.5 L 110 74.5 L 109 76.5 L 111 76.5 L 110 78.5 L 113 80.5 Q 111.5 83.5 110 80.5 L 100.5 64 L 98 65.5 L 81.5 94 L 82 92.5 L 83 88 Q 85.7 89.1 85 86.5 L 88.5 79 L 90 78.5 L 89 76.5 L 90 73 Q 93 74.3 92 70.5 L 93 70.5 L 93.5 72 L 98.5 63 Z " /><path fill="rgb(252,239,235)" stroke="rgb(252,239,235)" stroke-width="1" opacity="1" d="M 120.5 63 L 123.5 67 L 120.5 63 Z " /><path fill="rgb(252,239,235)" stroke="rgb(252,239,235)" stroke-width="1" opacity="1" d="M 73.5 71 L 74 72.5 L 72 73.5 L 73.5 71 Z " /><path fill="rgb(252,239,235)" stroke="rgb(252,239,235)" stroke-width="1" opacity="1" d="M 126.5 71 L 128 73.5 L 126 72.5 L 126.5 71 Z " /><path fill="rgb(252,239,235)" stroke="rgb(252,239,235)" stroke-width="1" opacity="1" d="M 55.5 80 L 56 82.5 L 55 82.5 L 55.5 80 Z " /><path fill="rgb(252,239,235)" stroke="rgb(252,239,235)" stroke-width="1" opacity="1" d="M 144.5 80 L 145 82.5 L 144 82.5 L 144.5 80 Z " /><path fill="rgb(252,239,235)" stroke="rgb(252,239,235)" stroke-width="1" opacity="1" d="M 112.5 83 L 118 92 L 120 92.5 Q 118.5 95.5 117 92.5 L 112.5 83 Z " /><path fill="rgb(252,239,235)" stroke="rgb(252,239,235)" stroke-width="1" opacity="1" d="M 55.5 88 L 56 90.5 L 55 90.5 L 55.5 88 Z " /><path fill="rgb(252,239,235)" stroke="rgb(252,239,235)" stroke-width="1" opacity="1" d="M 144.5 88 L 145 91.5 L 144 91.5 L 144.5 88 Z " /><path fill="rgb(252,239,235)" stroke="rgb(252,239,235)" stroke-width="1" opacity="1" d="M 99 92 Q 101.7 90.9 101 93.5 L 106 101.5 L 104 102 Q 104.1 97.1 100.5 95 L 97 97.5 Q 97.8 101.3 95.5 102 L 94 101.5 L 99 92 Z " /><path fill="rgb(252,239,235)" stroke="rgb(252,239,235)" stroke-width="1" opacity="1" d="M 80.5 95 L 80 96.5 L 80 98.5 L 58.5 135 L 58 133.5 L 63 126.5 L 64 121 Q 66.7 122.1 66 119.5 L 71 111.5 L 70.5 110 L 72 110.5 L 71 108.5 L 73 108.5 L 74 106.5 L 74 104.5 L 73 100.5 L 75.5 102 Q 77.8 102.8 77 100.5 L 78 97.5 L 77.5 96 Q 79 98.5 80.5 95 Z " /><path fill="rgb(252,239,235)" stroke="rgb(252,239,235)" stroke-width="1" opacity="1" d="M 119.5 95 L 122.5 100 L 124 99.5 L 123 101.5 L 124.5 104 L 125.5 102 L 126 103.5 Q 124.5 106.5 123 103.5 L 119 96.5 L 119.5 95 Z " /><path fill="rgb(252,239,235)" stroke="rgb(252,239,235)" stroke-width="1" opacity="1" d="M 125.5 96 L 128 96.5 L 127.5 99 L 125.5 96 Z " /><path fill="rgb(252,239,235)" stroke="rgb(252,239,235)" stroke-width="1" opacity="1" d="M 93.5 103 L 93 104.5 L 92 109 L 90 108.5 L 93.5 103 Z " /><path fill="rgb(252,239,235)" stroke="rgb(252,239,235)" stroke-width="1" opacity="1" d="M 106.5 103 L 110 108.5 L 108 109 L 106.5 104 L 105 104.5 L 106.5 103 Z " /><path fill="rgb(252,239,235)" stroke="rgb(252,239,235)" stroke-width="1" opacity="1" d="M 126.5 105 L 127.5 108 L 129 108.5 L 128 110.5 L 130 110.5 L 130 112.5 L 142.5 135 L 144 134.5 L 144 136.5 L 146 141.5 L 144 140.5 L 125 106.5 L 126.5 105 Z " /><path fill="rgb(252,239,235)" stroke="rgb(252,239,235)" stroke-width="1" opacity="1" d="M 89.5 110 L 90 111.5 L 87 115.5 L 87 117.5 L 86 121 L 84 121.5 Q 86.3 122.8 83.5 124 L 81 125.5 L 73 140.5 L 73 143 L 78.5 142 L 85 143.5 L 71 144 L 71 141.5 L 78 128.5 L 89.5 110 Z " /><path fill="rgb(252,239,235)" stroke="rgb(252,239,235)" stroke-width="1" opacity="1" d="M 110.5 110 L 119 124.5 L 117 123.5 L 116.5 122 L 115 122.5 L 115 120.5 L 114.5 118 L 113 118.5 L 113.5 117 Q 110.9 117.8 112 114.5 L 110.5 110 Z " /><path fill="rgb(252,239,235)" stroke="rgb(252,239,235)" stroke-width="1" opacity="1" d="M 119.5 126 L 130 143.5 L 114.5 144 L 114.5 143 L 128 142.5 L 122 132 L 120 131.5 L 121 129.5 Q 118 128.5 119.5 126 Z " /><path fill="rgb(252,239,235)" stroke="rgb(252,239,235)" stroke-width="1" opacity="1" d="M 57.5 136 L 57 137.5 L 46.5 156 L 47 154.5 L 57.5 136 Z " /><path fill="rgb(252,239,235)" stroke="rgb(252,239,235)" stroke-width="1" opacity="1" d="M 147.5 142 L 154.5 156 L 155.5 154 L 156 156.5 L 151.5 160 L 146.5 159 L 144.5 159 L 128.5 159 L 126.5 160 L 124.5 159 Q 123.3 161.3 122 158.5 L 152.5 158 L 154 156.5 L 146 143.5 L 147.5 142 Z " /><path fill="rgb(252,239,235)" stroke="rgb(252,239,235)" stroke-width="1" opacity="1" d="M 85.5 146 L 85.5 148 Q 88.1 147.2 87 150.5 L 86 150.5 L 85.5 149 L 78.5 159 L 74.5 160 L 73.5 159 L 47.5 159 L 46 157.5 L 47.5 158 L 78.5 158 L 80 156.5 L 85.5 146 Z " /><path fill="rgb(252,239,235)" stroke="rgb(252,239,235)" stroke-width="1" opacity="1" d="M 114.5 146 L 121 157.5 L 119.5 157 Q 116.2 158.1 117 155.5 L 118 153.5 L 114 148.5 L 114.5 146 Z " /><path fill="rgb(252,239,235)" stroke="rgb(252,239,235)" stroke-width="1" opacity="1" d="M 83.5 155 L 82.5 157 L 83.5 155 Z " /><path fill="rgb(243,252,249)" stroke="rgb(243,252,249)" stroke-width="1" opacity="1" d="M 72.5 48 L 71.5 50 L 72.5 48 Z " /><path fill="rgb(243,252,249)" stroke="rgb(243,252,249)" stroke-width="1" opacity="1" d="M 67.5 52 Q 70.5 53.5 67.5 55 L 67.5 52 Z " /><path fill="rgb(243,252,249)" stroke="rgb(243,252,249)" stroke-width="1" opacity="1" d="M 132.5 52 L 132.5 55 Q 129.5 53.5 132.5 52 Z " /><path fill="rgb(243,252,249)" stroke="rgb(243,252,249)" stroke-width="1" opacity="1" d="M 61.5 59 L 60.5 61 L 61.5 59 Z " /><path fill="rgb(243,252,249)" stroke="rgb(243,252,249)" stroke-width="1" opacity="1" d="M 138.5 59 L 139.5 61 L 138.5 59 Z " /><path fill="rgb(243,252,249)" stroke="rgb(243,252,249)" stroke-width="1" opacity="1" d="M 104 64 Q 107 63 106 66 Q 103 67 104 64 Z " /><path fill="rgb(243,252,249)" stroke="rgb(243,252,249)" stroke-width="1" opacity="1" d="M 110.5 64 L 111.5 66 L 110.5 64 Z " /><path fill="rgb(243,252,249)" stroke="rgb(243,252,249)" stroke-width="1" opacity="1" d="M 107.5 69 L 110 74 Q 107 75.3 108 71.5 L 107.5 69 Z " /><path fill="rgb(243,252,249)" stroke="rgb(243,252,249)" stroke-width="1" opacity="1" d="M 78.5 70 L 77.5 72 L 78.5 70 Z " /><path fill="rgb(243,252,249)" stroke="rgb(243,252,249)" stroke-width="1" opacity="1" d="M 84.5 80 L 86 82.5 L 84 83 L 84.5 80 Z " /><path fill="rgb(243,252,249)" stroke="rgb(243,252,249)" stroke-width="1" opacity="1" d="M 116 85 L 118.5 86 L 120 85.5 L 119 88 L 116 86.5 L 116 85 Z " /><path fill="rgb(243,252,249)" stroke="rgb(243,252,249)" stroke-width="1" opacity="1" d="M 72.5 96 L 75 96.5 L 77 99.5 L 74 100 L 72.5 96 Z " /><path fill="rgb(243,252,249)" stroke="rgb(243,252,249)" stroke-width="1" opacity="1" d="M 103.5 101 L 104.5 103 L 102.5 104 L 102 102.5 L 103.5 101 Z " /><path fill="rgb(243,252,249)" stroke="rgb(243,252,249)" stroke-width="1" opacity="1" d="M 95 102 L 97 102.5 L 92 112.5 Q 94.3 113.7 91.5 115 L 90.5 113 L 89 113.5 L 94 106.5 L 95 102 Z " /><path fill="rgb(243,252,249)" stroke="rgb(243,252,249)" stroke-width="1" opacity="1" d="M 99.5 105 L 101 109 Q 97.2 110.2 99.5 105 Z " /><path fill="rgb(243,252,249)" stroke="rgb(243,252,249)" stroke-width="1" opacity="1" d="M 106.5 107 L 108 109.5 L 106 108.5 L 106.5 107 Z " /><path fill="rgb(243,252,249)" stroke="rgb(243,252,249)" stroke-width="1" opacity="1" d="M 106.5 111 L 105.5 113 L 106.5 111 Z " /><path fill="rgb(243,252,249)" stroke="rgb(243,252,249)" stroke-width="1" opacity="1" d="M 66.5 115 L 66 116.5 L 64.5 119 L 65 117.5 L 66.5 115 Z " /><path fill="rgb(243,252,249)" stroke="rgb(243,252,249)" stroke-width="1" opacity="1" d="M 139.5 115 L 141 118 Q 137.5 119.1 139.5 115 Z " /><path fill="rgb(243,252,249)" stroke="rgb(243,252,249)" stroke-width="1" opacity="1" d="M 142 122 L 144 122.5 L 142 123.5 L 142 122 Z " /><path fill="rgb(243,252,249)" stroke="rgb(243,252,249)" stroke-width="1" opacity="1" d="M 139.5 126 Q 142.1 125.2 141 128.5 L 141.5 130 L 139.5 126 Z " /><path fill="rgb(243,252,249)" stroke="rgb(243,252,249)" stroke-width="1" opacity="1" d="M 59.5 128 L 58.5 130 L 59.5 128 Z " /><path fill="rgb(243,252,249)" stroke="rgb(243,252,249)" stroke-width="1" opacity="1" d="M 57.5 131 L 58 132.5 L 54.5 137 L 54 133 Q 57.8 134.3 57.5 131 Z " /><path fill="rgb(243,252,249)" stroke="rgb(243,252,249)" stroke-width="1" opacity="1" d="M 120.5 135 L 124 136.5 Q 125.1 139.8 122.5 139 L 120 138 L 120.5 135 Z " /><path fill="rgb(243,252,249)" stroke="rgb(243,252,249)" stroke-width="1" opacity="1" d="M 51.5 140 Q 54.5 141.5 51.5 143 L 50 142.5 L 51.5 140 Z " /><path fill="rgb(243,252,249)" stroke="rgb(243,252,249)" stroke-width="1" opacity="1" d="M 149.5 144 L 150.5 146 L 149.5 144 Z " /><path fill="rgb(243,252,249)" stroke="rgb(243,252,249)" stroke-width="1" opacity="1" d="M 156.5 146 Q 160.3 145 159 148 L 154 147.5 L 156.5 146 Z " /><path fill="rgb(243,252,249)" stroke="rgb(243,252,249)" stroke-width="1" opacity="1" d="M 114.5 153 L 117 154.5 L 116.5 156 Q 115.3 153.8 114 156.5 Q 114.8 158.8 112.5 158 L 113 156.5 L 114.5 153 Z " /><path fill="rgb(243,252,249)" stroke="rgb(243,252,249)" stroke-width="1" opacity="1" d="M 86.5 156 Q 91 158 87.5 160 L 86.5 156 Z " /><path fill="rgb(243,252,249)" stroke="rgb(243,252,249)" stroke-width="1" opacity="1" d="M 156.5 158 L 160 159.5 L 157.5 160 L 156.5 158 Z " /><path fill="rgb(243,252,249)" stroke="rgb(243,252,249)" stroke-width="1" opacity="1" d="M 146.5 159 L 149 159.5 L 146.5 160 L 146.5 159 Z " /><path fill="rgb(40,36,35)" stroke="rgb(40,36,35)" stroke-width="1" opacity="1" d="M 92.5 42 L 107.5 42 L 117.5 45 Q 128.2 49.8 135 58.5 L 143 74.5 L 144 91.5 Q 141.7 105.7 133.5 114 Q 131.3 114.8 132 112.5 L 126 102.5 L 131 90.5 L 131 79.5 Q 128.3 68.3 120.5 62 Q 112.4 53.1 93.5 55 Q 82.3 57.8 76 65.5 L 70 76.5 L 69 90.5 L 74 103.5 L 68 114 L 64 111.5 L 57 96.5 L 56 79.5 Q 59.5 60.5 72.5 51 Q 80.4 44.4 92.5 42 Z " /><path fill="rgb(40,36,35)" stroke="rgb(40,36,35)" stroke-width="1" opacity="1" d="M 89 115 L 101.5 117 L 111 115 L 116 127 L 108.5 129 L 98.5 130 L 84 127 L 89 115 Z " /><path fill="rgb(203,25,29)" stroke="rgb(203,25,29)" stroke-width="1" opacity="1" d="M 100.5 64 L 153 156.5 L 121 157 L 115 145.5 L 130 145 L 126 134.5 L 100.5 91 L 98 92.5 L 73 136.5 L 70 145 L 85 145.5 L 79 157 L 47 156.5 L 95 73.5 L 95 71.5 L 100.5 64 Z " /><path fill="rgb(252,253,253)" stroke="rgb(252,253,253)" stroke-width="1" opacity="1" d="M 74.5 42 L 75.5 44 L 73 43.5 L 74.5 42 Z " /><path fill="rgb(252,253,253)" stroke="rgb(252,253,253)" stroke-width="1" opacity="1" d="M 81.5 42 L 80.5 44 L 79 43.5 L 81.5 42 Z " /><path fill="rgb(252,253,253)" stroke="rgb(252,253,253)" stroke-width="1" opacity="1" d="M 96.5 58 L 97.5 60 L 96.5 58 Z " /><path fill="rgb(252,253,253)" stroke="rgb(252,253,253)" stroke-width="1" opacity="1" d="M 103.5 58 L 102.5 60 L 103.5 58 Z " /><path fill="rgb(252,253,253)" stroke="rgb(252,253,253)" stroke-width="1" opacity="1" d="M 108.5 60 L 109.5 62 L 108.5 60 Z " /><path fill="rgb(252,253,253)" stroke="rgb(252,253,253)" stroke-width="1" opacity="1" d="M 111.5 63 L 113 65.5 L 112 65.5 L 111.5 63 Z " /><path fill="rgb(252,253,253)" stroke="rgb(252,253,253)" stroke-width="1" opacity="1" d="M 54.5 75 L 56 75.5 L 54 76 L 52.5 80 L 52 78.5 L 54.5 75 Z " /><path fill="rgb(252,253,253)" stroke="rgb(252,253,253)" stroke-width="1" opacity="1" d="M 144.5 75 L 147 76.5 L 148 79.5 L 147 79.5 L 146 76 L 144.5 75 Z " /><path fill="rgb(252,253,253)" stroke="rgb(252,253,253)" stroke-width="1" opacity="1" d="M 126.5 79 L 129 83.5 L 127.5 84 Q 124.8 82.8 126.5 79 Z " /><path fill="rgb(252,253,253)" stroke="rgb(252,253,253)" stroke-width="1" opacity="1" d="M 52 82 L 55 83.5 L 54.5 86 L 53.5 83 L 52.5 85 L 52 82 Z " /><path fill="rgb(252,253,253)" stroke="rgb(252,253,253)" stroke-width="1" opacity="1" d="M 147.5 87 L 148 91.5 L 147 91.5 L 147.5 87 Z " /><path fill="rgb(252,253,253)" stroke="rgb(252,253,253)" stroke-width="1" opacity="1" d="M 48.5 88 L 49 92.5 L 48 92.5 L 48.5 88 Z " /><path fill="rgb(252,253,253)" stroke="rgb(252,253,253)" stroke-width="1" opacity="1" d="M 50 130 L 52 130.5 L 50 131.5 L 50 130 Z " /><path fill="rgb(252,253,253)" stroke="rgb(252,253,253)" stroke-width="1" opacity="1" d="M 48.5 133 Q 51.1 132.2 50 135.5 L 49 135.5 L 48.5 133 Z " /><path fill="rgb(252,253,253)" stroke="rgb(252,253,253)" stroke-width="1" opacity="1" d="M 53.5 136 L 54 137.5 L 51.5 139 L 51.5 138 Q 54 138.7 53.5 136 Z " /><path fill="rgb(252,253,253)" stroke="rgb(252,253,253)" stroke-width="1" opacity="1" d="M 152 136 L 155 136 L 155 143.5 L 153.5 143 L 152 142.5 L 152 136 Z " /><path fill="rgb(252,253,253)" stroke="rgb(252,253,253)" stroke-width="1" opacity="1" d="M 84.5 137 L 88 137.5 L 84.5 138 L 84.5 137 Z " /><path fill="rgb(252,253,253)" stroke="rgb(252,253,253)" stroke-width="1" opacity="1" d="M 112.5 140 L 113 142.5 L 112 142.5 L 112.5 140 Z " /><path fill="rgb(252,253,253)" stroke="rgb(252,253,253)" stroke-width="1" opacity="1" d="M 45 144 Q 48.8 142.5 48 145.5 L 48 147.5 L 46.5 150 L 45 149.5 L 45 144 Z " /><path fill="rgb(252,253,253)" stroke="rgb(252,253,253)" stroke-width="1" opacity="1" d="M 111.5 144 L 112 146.5 L 111 146.5 L 111.5 144 Z " /><path fill="rgb(252,253,253)" stroke="rgb(252,253,253)" stroke-width="1" opacity="1" d="M 42.5 153 L 42 154.5 L 41.5 156 L 41 154.5 L 42.5 153 Z " /><path fill="rgb(252,253,253)" stroke="rgb(252,253,253)" stroke-width="1" opacity="1" d="M 157.5 153 L 159 155.5 L 157 154.5 L 157.5 153 Z " /><path fill="rgb(251,251,250)" stroke="rgb(251,251,250)" stroke-width="1" opacity="1" d="M 96.5 40 L 104 40.5 L 96.5 41 L 96.5 40 Z " /><path fill="rgb(251,251,250)" stroke="rgb(251,251,250)" stroke-width="1" opacity="1" d="M 122.5 40 L 123 42 L 121 41.5 L 122.5 40 Z " /><path fill="rgb(251,251,250)" stroke="rgb(251,251,250)" stroke-width="1" opacity="1" d="M 126.5 40 L 126.5 43 Q 124.3 43.8 125 41.5 L 126.5 40 Z " /><path fill="rgb(251,251,250)" stroke="rgb(251,251,250)" stroke-width="1" opacity="1" d="M 76.5 41 L 79 41.5 L 76.5 42 L 76.5 41 Z " /><path fill="rgb(251,251,250)" stroke="rgb(251,251,250)" stroke-width="1" opacity="1" d="M 80.5 42 L 83 43.5 L 81.5 44 L 80.5 42 Z " /><path fill="rgb(251,251,250)" stroke="rgb(251,251,250)" stroke-width="1" opacity="1" d="M 69 50 L 71 50.5 L 69 51.5 L 69 50 Z " /><path fill="rgb(251,251,250)" stroke="rgb(251,251,250)" stroke-width="1" opacity="1" d="M 64.5 55 L 65 56.5 Q 63.5 59.5 62 56.5 L 64 56.5 L 64.5 55 Z " /><path fill="rgb(251,251,250)" stroke="rgb(251,251,250)" stroke-width="1" opacity="1" d="M 137.5 56 L 136.5 58 L 137.5 56 Z " /><path fill="rgb(251,251,250)" stroke="rgb(251,251,250)" stroke-width="1" opacity="1" d="M 92.5 57 L 93 59 L 91 58.5 L 92.5 57 Z " /><path fill="rgb(251,251,250)" stroke="rgb(251,251,250)" stroke-width="1" opacity="1" d="M 86.5 59 L 88 61.5 L 86 61.5 L 87 63.5 L 85.5 63 L 84 62.5 L 86.5 59 Z " /><path fill="rgb(251,251,250)" stroke="rgb(251,251,250)" stroke-width="1" opacity="1" d="M 113.5 59 L 113 60.5 L 112.5 62 L 112 60.5 L 113.5 59 Z " /><path fill="rgb(251,251,250)" stroke="rgb(251,251,250)" stroke-width="1" opacity="1" d="M 115.5 62 L 116.5 64 L 115.5 62 Z " /><path fill="rgb(251,251,250)" stroke="rgb(251,251,250)" stroke-width="1" opacity="1" d="M 90.5 63 L 92 63.5 L 89.5 65 L 90.5 63 Z " /><path fill="rgb(251,251,250)" stroke="rgb(251,251,250)" stroke-width="1" opacity="1" d="M 108.5 63 L 111 63.5 L 108.5 64 L 108.5 63 Z " /><path fill="rgb(251,251,250)" stroke="rgb(251,251,250)" stroke-width="1" opacity="1" d="M 141.5 64 L 142.5 66 L 140 65.5 L 141.5 64 Z " /><path fill="rgb(251,251,250)" stroke="rgb(251,251,250)" stroke-width="1" opacity="1" d="M 78.5 65 L 80 67.5 L 79 67.5 L 78.5 65 Z " /><path fill="rgb(251,251,250)" stroke="rgb(251,251,250)" stroke-width="1" opacity="1" d="M 92.5 65 L 91.5 67 L 92.5 65 Z " /><path fill="rgb(251,251,250)" stroke="rgb(251,251,250)" stroke-width="1" opacity="1" d="M 76 73 L 80 73 L 80 74.5 L 77.5 75 L 75 76.5 Q 75.7 79.1 73 78 Q 71.9 75.3 74.5 76 L 76 73 Z " /><path fill="rgb(251,251,250)" stroke="rgb(251,251,250)" stroke-width="1" opacity="1" d="M 54 77 Q 57.3 75.9 56 80 Q 52.7 81.1 54 77 Z " /><path fill="rgb(251,251,250)" stroke="rgb(251,251,250)" stroke-width="1" opacity="1" d="M 78.5 77 L 80 77.5 L 77 79.5 L 78.5 77 Z " /><path fill="rgb(251,251,250)" stroke="rgb(251,251,250)" stroke-width="1" opacity="1" d="M 120.5 77 L 123 78.5 L 122.5 80 L 120.5 77 Z " /><path fill="rgb(251,251,250)" stroke="rgb(251,251,250)" stroke-width="1" opacity="1" d="M 144 77 Q 147.3 75.9 146 80 Q 142.7 81.1 144 77 Z " /><path fill="rgb(251,251,250)" stroke="rgb(251,251,250)" stroke-width="1" opacity="1" d="M 49.5 80 L 51 82.5 L 49 81.5 L 49.5 80 Z " /><path fill="rgb(251,251,250)" stroke="rgb(251,251,250)" stroke-width="1" opacity="1" d="M 128.5 84 L 129 86.5 L 128 86.5 L 128.5 84 Z " /><path fill="rgb(251,251,250)" stroke="rgb(251,251,250)" stroke-width="1" opacity="1" d="M 52.5 85 L 53 87.5 L 52 87.5 L 52.5 85 Z " /><path fill="rgb(251,251,250)" stroke="rgb(251,251,250)" stroke-width="1" opacity="1" d="M 145.5 88 L 146 90.5 L 145 90.5 L 145.5 88 Z " /><path fill="rgb(251,251,250)" stroke="rgb(251,251,250)" stroke-width="1" opacity="1" d="M 128.5 90 L 129.5 92 Q 126.7 92.7 128.5 90 Z " /><path fill="rgb(251,251,250)" stroke="rgb(251,251,250)" stroke-width="1" opacity="1" d="M 102.5 99 L 103.5 101 L 102.5 99 Z " /><path fill="rgb(251,251,250)" stroke="rgb(251,251,250)" stroke-width="1" opacity="1" d="M 56.5 103 L 58 105.5 L 57 105.5 L 56.5 103 Z " /><path fill="rgb(251,251,250)" stroke="rgb(251,251,250)" stroke-width="1" opacity="1" d="M 97.5 103 L 96.5 105 L 97.5 103 Z " /><path fill="rgb(251,251,250)" stroke="rgb(251,251,250)" stroke-width="1" opacity="1" d="M 140.5 106 L 141 110 L 139 110.5 L 139.5 112 L 138 110.5 L 138.5 108 L 140 108.5 L 140.5 106 Z " /><path fill="rgb(251,251,250)" stroke="rgb(251,251,250)" stroke-width="1" opacity="1" d="M 60.5 107 L 61.5 109 L 60 108.5 L 59.5 110 L 59 108.5 L 60.5 107 Z " /><path fill="rgb(251,251,250)" stroke="rgb(251,251,250)" stroke-width="1" opacity="1" d="M 68.5 114 L 67.5 116 L 68.5 114 Z " /><path fill="rgb(251,251,250)" stroke="rgb(251,251,250)" stroke-width="1" opacity="1" d="M 98.5 114 L 103.5 115 L 105 114.5 L 102.5 116 L 98.5 115 L 96.5 116 L 96.5 115 L 98.5 114 Z " /><path fill="rgb(251,251,250)" stroke="rgb(251,251,250)" stroke-width="1" opacity="1" d="M 56.5 120 Q 60.8 121.8 58 123.5 L 57.5 125 L 56.5 120 Z " /><path fill="rgb(251,251,250)" stroke="rgb(251,251,250)" stroke-width="1" opacity="1" d="M 136.5 123 L 137.5 125 L 136.5 123 Z " /><path fill="rgb(251,251,250)" stroke="rgb(251,251,250)" stroke-width="1" opacity="1" d="M 88.5 130 L 92 131.5 L 90.5 132 L 88.5 130 Z " /><path fill="rgb(251,251,250)" stroke="rgb(251,251,250)" stroke-width="1" opacity="1" d="M 110.5 130 L 108.5 133 Q 106.3 133.8 107 131.5 Q 108.8 133.1 110.5 130 Z " /><path fill="rgb(251,251,250)" stroke="rgb(251,251,250)" stroke-width="1" opacity="1" d="M 102.5 131 L 105 132.5 L 103.5 132 L 102.5 131 Z " /><path fill="rgb(251,251,250)" stroke="rgb(251,251,250)" stroke-width="1" opacity="1" d="M 48.5 135 L 49 137.5 L 48 137.5 L 48.5 135 Z " /><path fill="rgb(251,251,250)" stroke="rgb(251,251,250)" stroke-width="1" opacity="1" d="M 150.5 139 L 151 141.5 L 150 141.5 L 150.5 139 Z " /><path fill="rgb(251,251,250)" stroke="rgb(251,251,250)" stroke-width="1" opacity="1" d="M 49.5 143 L 50.5 145 L 49.5 143 Z " /><path fill="rgb(251,251,250)" stroke="rgb(251,251,250)" stroke-width="1" opacity="1" d="M 87.5 151 L 87 152.5 Q 87.7 155.1 85 154 Q 83.9 151.3 86.5 152 L 87.5 151 Z " /><path fill="rgb(251,251,250)" stroke="rgb(251,251,250)" stroke-width="1" opacity="1" d="M 85.5 157 L 86 159.5 L 85 159.5 L 85.5 157 Z " /><path fill="rgb(248,252,251)" stroke="rgb(248,252,251)" stroke-width="1" opacity="1" d="M 64.5 52 L 67 55.5 L 65 54.5 L 64.5 52 Z " /><path fill="rgb(248,252,251)" stroke="rgb(248,252,251)" stroke-width="1" opacity="1" d="M 133.5 52 L 135 54.5 L 134 54.5 L 133.5 52 Z " /><path fill="rgb(248,252,251)" stroke="rgb(248,252,251)" stroke-width="1" opacity="1" d="M 58.5 59 L 59 61 L 61 61.5 L 59.5 62 L 58.5 59 Z " /><path fill="rgb(248,252,251)" stroke="rgb(248,252,251)" stroke-width="1" opacity="1" d="M 141.5 59 L 142 60.5 L 139.5 62 L 139.5 61 Q 142 61.7 141.5 59 Z " /><path fill="rgb(248,252,251)" stroke="rgb(248,252,251)" stroke-width="1" opacity="1" d="M 113.5 61 L 114.5 63 L 113.5 61 Z " /><path fill="rgb(248,252,251)" stroke="rgb(248,252,251)" stroke-width="1" opacity="1" d="M 93.5 64 L 96 64.5 L 94.5 67 L 93.5 64 Z " /><path fill="rgb(248,252,251)" stroke="rgb(248,252,251)" stroke-width="1" opacity="1" d="M 111.5 64 L 111.5 67 Q 108.5 65.5 111.5 64 Z " /><path fill="rgb(248,252,251)" stroke="rgb(248,252,251)" stroke-width="1" opacity="1" d="M 81.5 83 L 80.5 85 L 81.5 83 Z " /><path fill="rgb(248,252,251)" stroke="rgb(248,252,251)" stroke-width="1" opacity="1" d="M 118.5 83 Q 121.5 84.5 118.5 86 L 116 84.5 L 118.5 83 Z " /><path fill="rgb(248,252,251)" stroke="rgb(248,252,251)" stroke-width="1" opacity="1" d="M 75.5 96 L 77 98.5 L 75 97.5 L 75.5 96 Z " /><path fill="rgb(248,252,251)" stroke="rgb(248,252,251)" stroke-width="1" opacity="1" d="M 74.5 100 Q 76.8 99.3 76 101.5 L 74.5 100 Z " /><path fill="rgb(248,252,251)" stroke="rgb(248,252,251)" stroke-width="1" opacity="1" d="M 98.5 105 L 99 109 L 101 109.5 L 99.5 110 Q 96.8 108.8 98.5 105 Z " /><path fill="rgb(248,252,251)" stroke="rgb(248,252,251)" stroke-width="1" opacity="1" d="M 92.5 110 L 93.5 112 L 92.5 110 Z " /><path fill="rgb(248,252,251)" stroke="rgb(248,252,251)" stroke-width="1" opacity="1" d="M 65.5 114 L 64.5 116 L 65.5 114 Z " /><path fill="rgb(248,252,251)" stroke="rgb(248,252,251)" stroke-width="1" opacity="1" d="M 139.5 114 Q 141.8 113.3 141 115.5 L 139.5 114 Z " /><path fill="rgb(248,252,251)" stroke="rgb(248,252,251)" stroke-width="1" opacity="1" d="M 133.5 116 Q 135.8 115.3 135 117.5 L 133.5 116 Z " /><path fill="rgb(248,252,251)" stroke="rgb(248,252,251)" stroke-width="1" opacity="1" d="M 142.5 120 L 143.5 122 Q 140.7 122.7 142.5 120 Z " /><path fill="rgb(248,252,251)" stroke="rgb(248,252,251)" stroke-width="1" opacity="1" d="M 143.5 123 L 144 125 L 142 124.5 L 143.5 123 Z " /><path fill="rgb(248,252,251)" stroke="rgb(248,252,251)" stroke-width="1" opacity="1" d="M 50 128 Q 53 127 52 130 Q 49 131 50 128 Z " /><path fill="rgb(248,252,251)" stroke="rgb(248,252,251)" stroke-width="1" opacity="1" d="M 120.5 134 L 121.5 136 L 120.5 134 Z " /><path fill="rgb(248,252,251)" stroke="rgb(248,252,251)" stroke-width="1" opacity="1" d="M 51.5 139 Q 53.8 138.3 53 140.5 L 51.5 139 Z " /><path fill="rgb(248,252,251)" stroke="rgb(248,252,251)" stroke-width="1" opacity="1" d="M 122.5 139 L 124 139.5 L 120.5 141 L 120.5 140 L 122.5 139 Z " /><path fill="rgb(248,252,251)" stroke="rgb(248,252,251)" stroke-width="1" opacity="1" d="M 75.5 140 L 76 143 L 74 142.5 L 75.5 140 Z " /><path fill="rgb(248,252,251)" stroke="rgb(248,252,251)" stroke-width="1" opacity="1" d="M 94 144 L 96 144.5 L 96 146.5 Q 97 150.3 94 149 L 94 144 Z " /><path fill="rgb(248,252,251)" stroke="rgb(248,252,251)" stroke-width="1" opacity="1" d="M 93.5 150 L 94 153.5 L 93 153.5 L 93.5 150 Z " /><path fill="rgb(248,252,251)" stroke="rgb(248,252,251)" stroke-width="1" opacity="1" d="M 40.5 152 L 41.5 154 L 40.5 152 Z " /><path fill="rgb(248,252,251)" stroke="rgb(248,252,251)" stroke-width="1" opacity="1" d="M 114.5 152 L 117 153.5 L 115.5 153 L 113.5 154 L 114.5 152 Z " /><path fill="rgb(248,252,251)" stroke="rgb(248,252,251)" stroke-width="1" opacity="1" d="M 155.5 152 L 157 154.5 L 155.5 154 L 153 153.5 L 155.5 152 Z " /><path fill="rgb(248,252,251)" stroke="rgb(248,252,251)" stroke-width="1" opacity="1" d="M 85.5 154 Q 87.8 153.3 87 155.5 L 85.5 154 Z " /></svg>